<svg width="98" height="65" viewBox="0 0 98 65" fill="none" xmlns="http://www.w3.org/2000/svg">
<rect x="11.5" y="0.5" width="75" height="34" fill="white" stroke="black"/>
<rect x="20" width="6" height="25" fill="black"/>
<rect x="31" width="6" height="25" fill="black"/>
<rect x="51" y="1" width="6" height="25" fill="black"/>
<rect x="62" y="1" width="6" height="25" fill="black"/>
<rect x="73" y="1" width="6" height="25" fill="black"/>
<line x1="23" y1="25" x2="23" y2="34" stroke="black" stroke-width="2"/>
<line x1="76" y1="26" x2="76" y2="35" stroke="black" stroke-width="2"/>
<line x1="65" y1="26" x2="65" y2="35" stroke="black" stroke-width="2"/>
<line x1="54" y1="26" x2="54" y2="35" stroke="black" stroke-width="2"/>
<line x1="34" y1="25" x2="34" y2="34" stroke="black" stroke-width="2"/>
<line x1="44" y1="1" x2="44" y2="34" stroke="black" stroke-width="2"/>
<path d="M6.58239 56V45.8182H10.4801C11.2159 45.8182 11.8274 45.9342 12.3146 46.1662C12.8052 46.3949 13.1714 46.7081 13.4134 47.1058C13.6586 47.5036 13.7812 47.9543 13.7812 48.4581C13.7812 48.8724 13.7017 49.227 13.5426 49.522C13.3835 49.8137 13.1697 50.0507 12.9013 50.233C12.6328 50.4152 12.3329 50.5462 12.0014 50.6257V50.7251C12.3627 50.745 12.709 50.8561 13.0405 51.0582C13.3752 51.2571 13.6487 51.5388 13.8608 51.9034C14.0729 52.268 14.179 52.7088 14.179 53.2259C14.179 53.7528 14.0514 54.2268 13.7962 54.6477C13.541 55.0653 13.1565 55.3951 12.6428 55.6371C12.129 55.879 11.4827 56 10.7038 56H6.58239ZM8.42685 54.4588H10.4105C11.08 54.4588 11.5623 54.3312 11.8572 54.076C12.1555 53.8175 12.3047 53.486 12.3047 53.0817C12.3047 52.7801 12.2301 52.5083 12.081 52.2663C11.9318 52.0211 11.7197 51.8288 11.4446 51.6896C11.1695 51.5471 10.8414 51.4759 10.4602 51.4759H8.42685V54.4588ZM8.42685 50.1484H10.2514C10.5696 50.1484 10.8563 50.0904 11.1115 49.9744C11.3667 49.8551 11.5672 49.6877 11.7131 49.4723C11.8622 49.2536 11.9368 48.995 11.9368 48.6967C11.9368 48.3023 11.7976 47.9775 11.5192 47.7223C11.2441 47.4671 10.8348 47.3395 10.2912 47.3395H8.42685V50.1484ZM19.035 56.1491C18.2892 56.1491 17.6429 55.9851 17.0961 55.657C16.5492 55.3288 16.1249 54.8698 15.8233 54.2798C15.525 53.6899 15.3759 53.0005 15.3759 52.2116C15.3759 51.4228 15.525 50.7318 15.8233 50.1385C16.1249 49.5452 16.5492 49.0845 17.0961 48.7564C17.6429 48.4283 18.2892 48.2642 19.035 48.2642C19.7807 48.2642 20.427 48.4283 20.9739 48.7564C21.5208 49.0845 21.9434 49.5452 22.2417 50.1385C22.5433 50.7318 22.6941 51.4228 22.6941 52.2116C22.6941 53.0005 22.5433 53.6899 22.2417 54.2798C21.9434 54.8698 21.5208 55.3288 20.9739 55.657C20.427 55.9851 19.7807 56.1491 19.035 56.1491ZM19.0449 54.7074C19.4493 54.7074 19.7873 54.5964 20.0591 54.3743C20.3309 54.1489 20.5331 53.8473 20.6657 53.4695C20.8016 53.0916 20.8695 52.6707 20.8695 52.2067C20.8695 51.7393 20.8016 51.3168 20.6657 50.9389C20.5331 50.5578 20.3309 50.2545 20.0591 50.0291C19.7873 49.8037 19.4493 49.6911 19.0449 49.6911C18.6306 49.6911 18.2859 49.8037 18.0108 50.0291C17.7391 50.2545 17.5352 50.5578 17.3993 50.9389C17.2667 51.3168 17.2005 51.7393 17.2005 52.2067C17.2005 52.6707 17.2667 53.0916 17.3993 53.4695C17.5352 53.8473 17.7391 54.1489 18.0108 54.3743C18.2859 54.5964 18.6306 54.7074 19.0449 54.7074ZM26.0213 51.5256V56H24.2216V48.3636H25.9418V49.6612H26.0312C26.2069 49.2337 26.487 48.8939 26.8714 48.642C27.2592 48.3902 27.7382 48.2642 28.3082 48.2642C28.8352 48.2642 29.2943 48.3769 29.6854 48.6023C30.0798 48.8277 30.3847 49.1541 30.6001 49.5817C30.8189 50.0092 30.9266 50.5279 30.9233 51.1378V56H29.1236V51.4162C29.1236 50.9058 28.991 50.5064 28.7259 50.218C28.464 49.9297 28.1011 49.7855 27.6371 49.7855C27.3222 49.7855 27.0421 49.8551 26.7969 49.9943C26.5549 50.1302 26.3643 50.3274 26.2251 50.5859C26.0893 50.8445 26.0213 51.1577 26.0213 51.5256ZM32.7528 48.3636H34.5526V56.4375C34.5526 56.9877 34.4482 57.4418 34.2393 57.7997C34.0305 58.1577 33.7289 58.4245 33.3345 58.6001C32.9401 58.7758 32.4612 58.8636 31.8977 58.8636C31.8314 58.8636 31.7701 58.862 31.7138 58.8587C31.6574 58.8587 31.5961 58.857 31.5298 58.8537V57.3871C31.5795 57.3904 31.6243 57.392 31.6641 57.392C31.7038 57.3954 31.7453 57.397 31.7884 57.397C32.133 57.397 32.38 57.3125 32.5291 57.1435C32.6783 56.9777 32.7528 56.7341 32.7528 56.4126V48.3636ZM33.6477 47.2798C33.3594 47.2798 33.1125 47.1854 32.907 46.9964C32.7048 46.8042 32.6037 46.5739 32.6037 46.3054C32.6037 46.0336 32.7048 45.8033 32.907 45.6143C33.1125 45.4221 33.3594 45.326 33.6477 45.326C33.9328 45.326 34.1764 45.4221 34.3786 45.6143C34.584 45.8033 34.6868 46.0336 34.6868 46.3054C34.6868 46.5739 34.584 46.8042 34.3786 46.9964C34.1764 47.1854 33.9328 47.2798 33.6477 47.2798ZM38.6007 56.1541C38.1168 56.1541 37.6809 56.0679 37.2931 55.8956C36.9087 55.7199 36.6038 55.4614 36.3784 55.12C36.1563 54.7786 36.0453 54.3577 36.0453 53.8572C36.0453 53.4264 36.1248 53.0701 36.2839 52.7884C36.443 52.5066 36.6601 52.2812 36.9352 52.1122C37.2103 51.9432 37.5202 51.8156 37.8649 51.7294C38.2129 51.6399 38.5725 51.5753 38.9437 51.5355C39.3912 51.4891 39.7541 51.4477 40.0325 51.4112C40.3109 51.3714 40.5131 51.3118 40.639 51.2322C40.7683 51.1494 40.8329 51.0218 40.8329 50.8494V50.8196C40.8329 50.4451 40.7219 50.1551 40.4998 49.9496C40.2778 49.7441 39.9579 49.6413 39.5403 49.6413C39.0995 49.6413 38.7498 49.7375 38.4913 49.9297C38.2361 50.1219 38.0637 50.349 37.9743 50.6108L36.2939 50.3722C36.4264 49.9081 36.6452 49.5204 36.9501 49.2088C37.255 48.8939 37.6279 48.6586 38.0687 48.5028C38.5095 48.3438 38.9967 48.2642 39.5304 48.2642C39.8983 48.2642 40.2645 48.3073 40.6291 48.3935C40.9937 48.4796 41.3268 48.6222 41.6284 48.821C41.93 49.0166 42.1719 49.2834 42.3542 49.6214C42.5398 49.9595 42.6326 50.3821 42.6326 50.8892V56H40.9025V54.951H40.8429C40.7335 55.1631 40.5794 55.362 40.3805 55.5476C40.185 55.7299 39.938 55.8774 39.6397 55.9901C39.3448 56.0994 38.9984 56.1541 38.6007 56.1541ZM39.068 54.8317C39.4293 54.8317 39.7425 54.7604 40.0076 54.6179C40.2728 54.4721 40.4766 54.2798 40.6191 54.0412C40.765 53.8026 40.8379 53.5424 40.8379 53.2607V52.3608C40.7815 52.4072 40.6854 52.4503 40.5495 52.4901C40.417 52.5298 40.2678 52.5646 40.1021 52.5945C39.9364 52.6243 39.7723 52.6508 39.6099 52.674C39.4475 52.6972 39.3066 52.7171 39.1873 52.7337C38.9189 52.7701 38.6786 52.8298 38.4664 52.9126C38.2543 52.9955 38.0869 53.1115 37.9643 53.2607C37.8417 53.4065 37.7804 53.5954 37.7804 53.8274C37.7804 54.1589 37.9013 54.4091 38.1433 54.5781C38.3852 54.7472 38.6935 54.8317 39.068 54.8317ZM47.9945 56V45.8182H51.8127C52.5949 45.8182 53.2511 45.964 53.7814 46.2557C54.315 46.5473 54.7177 46.9484 54.9895 47.4588C55.2646 47.9659 55.4022 48.5426 55.4022 49.1889C55.4022 49.8419 55.2646 50.4219 54.9895 50.929C54.7144 51.4361 54.3084 51.8355 53.7715 52.1271C53.2346 52.4155 52.5733 52.5597 51.7878 52.5597H49.2573V51.0433H51.5392C51.9966 51.0433 52.3712 50.9638 52.6628 50.8047C52.9545 50.6456 53.1699 50.4268 53.3091 50.1484C53.4516 49.87 53.5229 49.5502 53.5229 49.1889C53.5229 48.8277 53.4516 48.5095 53.3091 48.2344C53.1699 47.9593 52.9528 47.7455 52.6578 47.593C52.3662 47.4373 51.99 47.3594 51.5293 47.3594H49.839V56H47.9945ZM56.9247 56V48.3636H58.7244V56H56.9247ZM57.8295 47.2798C57.5445 47.2798 57.2992 47.1854 57.0938 46.9964C56.8883 46.8042 56.7855 46.5739 56.7855 46.3054C56.7855 46.0336 56.8883 45.8033 57.0938 45.6143C57.2992 45.4221 57.5445 45.326 57.8295 45.326C58.1179 45.326 58.3632 45.4221 58.5653 45.6143C58.7708 45.8033 58.8736 46.0336 58.8736 46.3054C58.8736 46.5739 58.7708 46.8042 58.5653 46.9964C58.3632 47.1854 58.1179 47.2798 57.8295 47.2798ZM62.7725 56.1541C62.2886 56.1541 61.8528 56.0679 61.465 55.8956C61.0806 55.7199 60.7756 55.4614 60.5502 55.12C60.3282 54.7786 60.2172 54.3577 60.2172 53.8572C60.2172 53.4264 60.2967 53.0701 60.4558 52.7884C60.6149 52.5066 60.832 52.2812 61.1071 52.1122C61.3822 51.9432 61.6921 51.8156 62.0368 51.7294C62.3848 51.6399 62.7444 51.5753 63.1156 51.5355C63.563 51.4891 63.926 51.4477 64.2044 51.4112C64.4828 51.3714 64.685 51.3118 64.8109 51.2322C64.9402 51.1494 65.0048 51.0218 65.0048 50.8494V50.8196C65.0048 50.4451 64.8938 50.1551 64.6717 49.9496C64.4496 49.7441 64.1298 49.6413 63.7122 49.6413C63.2714 49.6413 62.9217 49.7375 62.6632 49.9297C62.408 50.1219 62.2356 50.349 62.1461 50.6108L60.4657 50.3722C60.5983 49.9081 60.8171 49.5204 61.122 49.2088C61.4269 48.8939 61.7998 48.6586 62.2406 48.5028C62.6814 48.3438 63.1686 48.2642 63.7022 48.2642C64.0701 48.2642 64.4364 48.3073 64.801 48.3935C65.1655 48.4796 65.4986 48.6222 65.8002 48.821C66.1019 49.0166 66.3438 49.2834 66.5261 49.6214C66.7117 49.9595 66.8045 50.3821 66.8045 50.8892V56H65.0744V54.951H65.0147C64.9054 55.1631 64.7512 55.362 64.5524 55.5476C64.3568 55.7299 64.1099 55.8774 63.8116 55.9901C63.5166 56.0994 63.1703 56.1541 62.7725 56.1541ZM63.2399 54.8317C63.6011 54.8317 63.9144 54.7604 64.1795 54.6179C64.4447 54.4721 64.6485 54.2798 64.791 54.0412C64.9368 53.8026 65.0098 53.5424 65.0098 53.2607V52.3608C64.9534 52.4072 64.8573 52.4503 64.7214 52.4901C64.5888 52.5298 64.4397 52.5646 64.274 52.5945C64.1083 52.6243 63.9442 52.6508 63.7818 52.674C63.6194 52.6972 63.4785 52.7171 63.3592 52.7337C63.0907 52.7701 62.8504 52.8298 62.6383 52.9126C62.4262 52.9955 62.2588 53.1115 62.1362 53.2607C62.0136 53.4065 61.9522 53.5954 61.9522 53.8274C61.9522 54.1589 62.0732 54.4091 62.3152 54.5781C62.5571 54.7472 62.8654 54.8317 63.2399 54.8317ZM70.4139 51.5256V56H68.6142V48.3636H70.3343V49.6612H70.4238C70.5995 49.2337 70.8796 48.8939 71.264 48.642C71.6518 48.3902 72.1307 48.2642 72.7008 48.2642C73.2278 48.2642 73.6868 48.3769 74.0779 48.6023C74.4724 48.8277 74.7773 49.1541 74.9927 49.5817C75.2115 50.0092 75.3192 50.5279 75.3159 51.1378V56H73.5162V51.4162C73.5162 50.9058 73.3836 50.5064 73.1184 50.218C72.8566 49.9297 72.4937 49.7855 72.0297 49.7855C71.7148 49.7855 71.4347 49.8551 71.1895 49.9943C70.9475 50.1302 70.7569 50.3274 70.6177 50.5859C70.4818 50.8445 70.4139 51.1577 70.4139 51.5256ZM80.4764 56.1491C79.7306 56.1491 79.0843 55.9851 78.5375 55.657C77.9906 55.3288 77.5663 54.8698 77.2647 54.2798C76.9664 53.6899 76.8173 53.0005 76.8173 52.2116C76.8173 51.4228 76.9664 50.7318 77.2647 50.1385C77.5663 49.5452 77.9906 49.0845 78.5375 48.7564C79.0843 48.4283 79.7306 48.2642 80.4764 48.2642C81.2221 48.2642 81.8684 48.4283 82.4153 48.7564C82.9622 49.0845 83.3848 49.5452 83.6831 50.1385C83.9847 50.7318 84.1355 51.4228 84.1355 52.2116C84.1355 53.0005 83.9847 53.6899 83.6831 54.2798C83.3848 54.8698 82.9622 55.3288 82.4153 55.657C81.8684 55.9851 81.2221 56.1491 80.4764 56.1491ZM80.4863 54.7074C80.8907 54.7074 81.2288 54.5964 81.5005 54.3743C81.7723 54.1489 81.9745 53.8473 82.1071 53.4695C82.243 53.0916 82.3109 52.6707 82.3109 52.2067C82.3109 51.7393 82.243 51.3168 82.1071 50.9389C81.9745 50.5578 81.7723 50.2545 81.5005 50.0291C81.2288 49.8037 80.8907 49.6911 80.4863 49.6911C80.072 49.6911 79.7273 49.8037 79.4522 50.0291C79.1805 50.2545 78.9766 50.5578 78.8407 50.9389C78.7082 51.3168 78.6419 51.7393 78.6419 52.2067C78.6419 52.6707 78.7082 53.0916 78.8407 53.4695C78.9766 53.8473 79.1805 54.1489 79.4522 54.3743C79.7273 54.5964 80.072 54.7074 80.4863 54.7074ZM91.6985 50.3821L90.0579 50.5611C90.0115 50.3954 89.9303 50.2396 89.8143 50.0938C89.7016 49.9479 89.5491 49.8303 89.3569 49.7408C89.1647 49.6513 88.9293 49.6065 88.6509 49.6065C88.2764 49.6065 87.9615 49.6877 87.7063 49.8501C87.4544 50.0125 87.3301 50.223 87.3335 50.4815C87.3301 50.7036 87.4113 50.8842 87.5771 51.0234C87.7461 51.1626 88.0245 51.277 88.4123 51.3665L89.7148 51.6449C90.4374 51.8007 90.9743 52.0476 91.3256 52.3857C91.6803 52.7237 91.8593 53.1662 91.8626 53.7131C91.8593 54.1937 91.7184 54.6179 91.44 54.9858C91.1649 55.3504 90.7821 55.6354 90.2915 55.8409C89.801 56.0464 89.2376 56.1491 88.6012 56.1491C87.6665 56.1491 86.9142 55.9536 86.3441 55.5625C85.774 55.1681 85.4343 54.6196 85.3249 53.9169L87.0799 53.7479C87.1594 54.0926 87.3285 54.3527 87.587 54.5284C87.8455 54.7041 88.1819 54.7919 88.5962 54.7919C89.0238 54.7919 89.3668 54.7041 89.6254 54.5284C89.8872 54.3527 90.0181 54.1357 90.0181 53.8771C90.0181 53.6584 89.9336 53.4777 89.7646 53.3352C89.5988 53.1927 89.3403 53.0833 88.989 53.0071L87.6864 52.7337C86.954 52.5812 86.4121 52.3243 86.0607 51.9631C85.7094 51.5985 85.5354 51.1378 85.5387 50.581C85.5354 50.1103 85.663 49.7027 85.9215 49.358C86.1834 49.0099 86.5463 48.7415 87.0103 48.5526C87.4776 48.3603 88.0162 48.2642 88.6261 48.2642C89.521 48.2642 90.2253 48.4548 90.739 48.8359C91.256 49.2171 91.5759 49.7325 91.6985 50.3821Z" fill="black"/>
</svg>
