<svg width="98" height="58" viewBox="0 0 98 58" fill="none" xmlns="http://www.w3.org/2000/svg">
<rect x="11.5" y="0.5" width="75" height="34" fill="white" stroke="#353535"/>
<rect x="21" width="4" height="25" fill="#353535"/>
<rect x="32" width="4" height="25" fill="#353535"/>
<rect x="52" y="1" width="4" height="25" fill="#353535"/>
<rect x="63" y="1" width="4" height="25" fill="#353535"/>
<rect x="74" y="1" width="4" height="25" fill="#353535"/>
<line x1="23" y1="25" x2="23" y2="34" stroke="#353535" stroke-width="2"/>
<line x1="76" y1="26" x2="76" y2="35" stroke="#353535" stroke-width="2"/>
<line x1="65" y1="26" x2="65" y2="35" stroke="#353535" stroke-width="2"/>
<line x1="54" y1="26" x2="54" y2="35" stroke="#353535" stroke-width="2"/>
<line x1="34" y1="25" x2="34" y2="34" stroke="#353535" stroke-width="2"/>
<line x1="44" y1="1" x2="44" y2="34" stroke="#353535" stroke-width="2"/>
<path d="M2.73025 51.7543V51.3636H5.45752V51.7543H4.31405V55H3.87371V51.7543H2.73025ZM7.42796 53.8849V52.2727H7.84699V55H7.42796V54.5384H7.39955C7.33563 54.6768 7.23619 54.7946 7.10125 54.8917C6.96631 54.9876 6.79585 55.0355 6.58989 55.0355C6.41943 55.0355 6.26792 54.9982 6.13534 54.9237C6.00277 54.8479 5.8986 54.7343 5.82284 54.5827C5.74709 54.43 5.70921 54.2377 5.70921 54.0057V52.2727H6.12824V53.9773C6.12824 54.1761 6.18387 54.3348 6.29514 54.4531C6.4076 54.5715 6.55083 54.6307 6.72483 54.6307C6.829 54.6307 6.93494 54.604 7.04266 54.5508C7.15156 54.4975 7.24271 54.4158 7.3161 54.3058C7.39067 54.1957 7.42796 54.0554 7.42796 53.8849ZM9.03351 53.3594V55H8.61448V52.2727H9.01931V52.6989H9.05482C9.11874 52.5604 9.21581 52.4491 9.34601 52.3651C9.47622 52.2798 9.64431 52.2372 9.85028 52.2372C10.0349 52.2372 10.1965 52.2751 10.335 52.3509C10.4735 52.4254 10.5812 52.5391 10.6582 52.6918C10.7351 52.8433 10.7736 53.035 10.7736 53.267V55H10.3545V53.2955C10.3545 53.0812 10.2989 52.9143 10.1876 52.7947C10.0764 52.674 9.92367 52.6136 9.72954 52.6136C9.59578 52.6136 9.47622 52.6426 9.37087 52.7006C9.26671 52.7586 9.18444 52.8433 9.12407 52.9545C9.0637 53.0658 9.03351 53.2008 9.03351 53.3594ZM11.5393 55V52.2727H11.9583V55H11.5393ZM11.7524 51.8182C11.6707 51.8182 11.6002 51.7904 11.5411 51.7347C11.4831 51.6791 11.4541 51.6122 11.4541 51.5341C11.4541 51.456 11.4831 51.3891 11.5411 51.3335C11.6002 51.2778 11.6707 51.25 11.7524 51.25C11.834 51.25 11.9039 51.2778 11.9619 51.3335C12.0211 51.3891 12.0506 51.456 12.0506 51.5341C12.0506 51.6122 12.0211 51.6791 11.9619 51.7347C11.9039 51.7904 11.834 51.8182 11.7524 51.8182ZM13.1448 53.3594V55H12.7258V52.2727H13.1306V52.6989H13.1661C13.2301 52.5604 13.3271 52.4491 13.4573 52.3651C13.5876 52.2798 13.7556 52.2372 13.9616 52.2372C14.1463 52.2372 14.3078 52.2751 14.4463 52.3509C14.5848 52.4254 14.6925 52.5391 14.7695 52.6918C14.8464 52.8433 14.8849 53.035 14.8849 53.267V55H14.4659V53.2955C14.4659 53.0812 14.4102 52.9143 14.299 52.7947C14.1877 52.674 14.035 52.6136 13.8409 52.6136C13.7071 52.6136 13.5876 52.6426 13.4822 52.7006C13.378 52.7586 13.2958 52.8433 13.2354 52.9545C13.175 53.0658 13.1448 53.2008 13.1448 53.3594ZM16.7515 56.0795C16.5491 56.0795 16.375 56.0535 16.2294 56.0014C16.0839 55.9505 15.9625 55.883 15.8655 55.799C15.7696 55.7161 15.6932 55.6274 15.6364 55.5327L15.9702 55.2983C16.0081 55.348 16.056 55.4048 16.114 55.4688C16.172 55.5339 16.2513 55.5901 16.352 55.6374C16.4538 55.686 16.5869 55.7102 16.7515 55.7102C16.9716 55.7102 17.1533 55.657 17.2966 55.5504C17.4398 55.4439 17.5114 55.277 17.5114 55.0497V54.4957H17.4759C17.4451 54.5455 17.4013 54.607 17.3445 54.6804C17.2889 54.7526 17.2084 54.8171 17.103 54.8739C16.9989 54.9296 16.858 54.9574 16.6804 54.9574C16.4603 54.9574 16.2626 54.9053 16.0874 54.8011C15.9134 54.697 15.7755 54.5455 15.6737 54.3466C15.5731 54.1477 15.5228 53.9062 15.5228 53.6222C15.5228 53.3428 15.5719 53.0996 15.6701 52.8924C15.7684 52.6841 15.9051 52.5231 16.0803 52.4094C16.2555 52.2946 16.4579 52.2372 16.6875 52.2372C16.8651 52.2372 17.006 52.2668 17.1101 52.326C17.2155 52.384 17.296 52.4503 17.3516 52.5249C17.4084 52.5982 17.4522 52.6586 17.483 52.706H17.5256V52.2727H17.9304V55.0781C17.9304 55.3125 17.8772 55.5031 17.7706 55.6499C17.6653 55.7978 17.5232 55.9061 17.3445 55.9748C17.1669 56.0446 16.9693 56.0795 16.7515 56.0795ZM16.7373 54.581C16.9053 54.581 17.0474 54.5425 17.1634 54.4656C17.2794 54.3886 17.3676 54.2779 17.428 54.1335C17.4883 53.9891 17.5185 53.8163 17.5185 53.6151C17.5185 53.4186 17.4889 53.2451 17.4297 53.0948C17.3705 52.9445 17.283 52.8267 17.1669 52.7415C17.0509 52.6562 16.9077 52.6136 16.7373 52.6136C16.5597 52.6136 16.4117 52.6586 16.2934 52.7486C16.1762 52.8385 16.088 52.9593 16.0288 53.1108C15.9708 53.2623 15.9418 53.4304 15.9418 53.6151C15.9418 53.8045 15.9714 53.9719 16.0306 54.1175C16.091 54.262 16.1797 54.3756 16.2969 54.4585C16.4153 54.5401 16.5621 54.581 16.7373 54.581ZM20.1606 55V51.3636H21.3892C21.6745 51.3636 21.9077 51.4151 22.0888 51.5181C22.2711 51.6199 22.4061 51.7578 22.4937 51.9318C22.5812 52.1058 22.625 52.3 22.625 52.5142C22.625 52.7285 22.5812 52.9232 22.4937 53.0984C22.4072 53.2736 22.2735 53.4132 22.0924 53.5174C21.9113 53.6204 21.6793 53.6719 21.3964 53.6719H20.5157V53.2812H21.3821C21.5775 53.2812 21.7343 53.2475 21.8527 53.18C21.971 53.1126 22.0569 53.0214 22.1101 52.9066C22.1646 52.7906 22.1918 52.6598 22.1918 52.5142C22.1918 52.3686 22.1646 52.2384 22.1101 52.1236C22.0569 52.0088 21.9705 51.9188 21.8509 51.8537C21.7313 51.7874 21.5727 51.7543 21.375 51.7543H20.6009V55H20.1606ZM23.2776 55V52.2727H23.6966V55H23.2776ZM23.4906 51.8182C23.409 51.8182 23.3385 51.7904 23.2793 51.7347C23.2213 51.6791 23.1923 51.6122 23.1923 51.5341C23.1923 51.456 23.2213 51.3891 23.2793 51.3335C23.3385 51.2778 23.409 51.25 23.4906 51.25C23.5723 51.25 23.6421 51.2778 23.7002 51.3335C23.7593 51.3891 23.7889 51.456 23.7889 51.5341C23.7889 51.6122 23.7593 51.6791 23.7002 51.7347C23.6421 51.7904 23.5723 51.8182 23.4906 51.8182ZM25.2666 55.0639C25.0938 55.0639 24.937 55.0314 24.7961 54.9663C24.6553 54.9 24.5434 54.8047 24.4605 54.6804C24.3777 54.5549 24.3362 54.4034 24.3362 54.2259C24.3362 54.0696 24.367 53.9429 24.4286 53.8459C24.4901 53.7476 24.5724 53.6707 24.6754 53.6151C24.7784 53.5594 24.892 53.518 25.0163 53.4908C25.1418 53.4624 25.2678 53.4399 25.3945 53.4233C25.5602 53.402 25.6946 53.386 25.7975 53.3754C25.9017 53.3635 25.9775 53.344 26.0248 53.3168C26.0733 53.2895 26.0976 53.2422 26.0976 53.1747V53.1605C26.0976 52.9853 26.0497 52.8492 25.9538 52.7521C25.8591 52.6551 25.7153 52.6065 25.5223 52.6065C25.3223 52.6065 25.1654 52.6503 25.0518 52.7379C24.9382 52.8255 24.8583 52.919 24.8121 53.0185L24.4144 52.8764C24.4854 52.7107 24.5801 52.5817 24.6985 52.4893C24.818 52.3958 24.9482 52.3307 25.0891 52.294C25.2311 52.2562 25.3708 52.2372 25.5081 52.2372C25.5957 52.2372 25.6963 52.2479 25.81 52.2692C25.9248 52.2893 26.0355 52.3313 26.142 52.3952C26.2497 52.4592 26.3391 52.5556 26.4101 52.6847C26.4811 52.8137 26.5166 52.9865 26.5166 53.2031V55H26.0976V54.6307H26.0763C26.0479 54.6899 26.0005 54.7532 25.9343 54.8207C25.868 54.8881 25.7798 54.9455 25.6697 54.9929C25.5596 55.0402 25.4253 55.0639 25.2666 55.0639ZM25.3306 54.6875C25.4963 54.6875 25.636 54.6549 25.7496 54.5898C25.8644 54.5247 25.9508 54.4407 26.0088 54.3377C26.068 54.2347 26.0976 54.1264 26.0976 54.0128V53.6293C26.0799 53.6506 26.0408 53.6701 25.9804 53.6879C25.9212 53.7044 25.8526 53.7192 25.7745 53.7322C25.6975 53.7441 25.6224 53.7547 25.549 53.7642C25.4768 53.7725 25.4182 53.7796 25.3732 53.7855C25.2643 53.7997 25.1625 53.8228 25.0678 53.8548C24.9743 53.8855 24.8985 53.9323 24.8405 53.995C24.7837 54.0566 24.7553 54.1406 24.7553 54.2472C24.7553 54.3928 24.8091 54.5028 24.9169 54.5774C25.0258 54.6508 25.1637 54.6875 25.3306 54.6875ZM27.7005 53.3594V55H27.2815V52.2727H27.6863V52.6989H27.7218C27.7857 52.5604 27.8828 52.4491 28.013 52.3651C28.1432 52.2798 28.3113 52.2372 28.5173 52.2372C28.7019 52.2372 28.8635 52.2751 29.002 52.3509C29.1405 52.4254 29.2482 52.5391 29.3252 52.6918C29.4021 52.8433 29.4406 53.035 29.4406 53.267V55H29.0215V53.2955C29.0215 53.0812 28.9659 52.9143 28.8546 52.7947C28.7434 52.674 28.5907 52.6136 28.3965 52.6136C28.2628 52.6136 28.1432 52.6426 28.0379 52.7006C27.9337 52.7586 27.8514 52.8433 27.7911 52.9545C27.7307 53.0658 27.7005 53.2008 27.7005 53.3594ZM31.3142 55.0568C31.068 55.0568 30.852 54.9982 30.6661 54.881C30.4815 54.7638 30.3371 54.5999 30.2329 54.3892C30.1299 54.1785 30.0784 53.9323 30.0784 53.6506C30.0784 53.3665 30.1299 53.1185 30.2329 52.9066C30.3371 52.6947 30.4815 52.5302 30.6661 52.413C30.852 52.2958 31.068 52.2372 31.3142 52.2372C31.5604 52.2372 31.7759 52.2958 31.9605 52.413C32.1464 52.5302 32.2908 52.6947 32.3938 52.9066C32.4979 53.1185 32.55 53.3665 32.55 53.6506C32.55 53.9323 32.4979 54.1785 32.3938 54.3892C32.2908 54.5999 32.1464 54.7638 31.9605 54.881C31.7759 54.9982 31.5604 55.0568 31.3142 55.0568ZM31.3142 54.6804C31.5013 54.6804 31.6551 54.6325 31.7759 54.5366C31.8966 54.4407 31.986 54.3146 32.044 54.1584C32.102 54.0021 32.131 53.8329 32.131 53.6506C32.131 53.4683 32.102 53.2984 32.044 53.141C31.986 52.9835 31.8966 52.8563 31.7759 52.7592C31.6551 52.6622 31.5013 52.6136 31.3142 52.6136C31.1272 52.6136 30.9733 52.6622 30.8526 52.7592C30.7318 52.8563 30.6425 52.9835 30.5845 53.141C30.5265 53.2984 30.4975 53.4683 30.4975 53.6506C30.4975 53.8329 30.5265 54.0021 30.5845 54.1584C30.6425 54.3146 30.7318 54.4407 30.8526 54.5366C30.9733 54.6325 31.1272 54.6804 31.3142 54.6804ZM35.1215 52.8835L34.7451 52.9901C34.7214 52.9273 34.6865 52.8664 34.6403 52.8072C34.5953 52.7468 34.5338 52.6971 34.4557 52.658C34.3775 52.619 34.2775 52.5994 34.1556 52.5994C33.9887 52.5994 33.8496 52.6379 33.7383 52.7148C33.6282 52.7906 33.5732 52.8871 33.5732 53.0043C33.5732 53.1084 33.6111 53.1907 33.6868 53.2511C33.7626 53.3114 33.881 53.3617 34.0419 53.402L34.4468 53.5014C34.6906 53.5606 34.8723 53.6512 34.9919 53.7731C35.1114 53.8938 35.1712 54.0495 35.1712 54.2401C35.1712 54.3963 35.1262 54.536 35.0363 54.6591C34.9475 54.7822 34.8232 54.8793 34.6634 54.9503C34.5036 55.0213 34.3178 55.0568 34.1059 55.0568C33.8277 55.0568 33.5975 54.9964 33.4152 54.8757C33.2329 54.755 33.1175 54.5786 33.0689 54.3466L33.4667 54.2472C33.5045 54.3939 33.5762 54.504 33.6815 54.5774C33.788 54.6508 33.9271 54.6875 34.0988 54.6875C34.2941 54.6875 34.4491 54.6461 34.564 54.5632C34.68 54.4792 34.738 54.3786 34.738 54.2614C34.738 54.1667 34.7048 54.0874 34.6385 54.0234C34.5723 53.9583 34.4705 53.9098 34.3331 53.8778L33.8786 53.7713C33.6288 53.7121 33.4454 53.6204 33.3282 53.4961C33.2122 53.3706 33.1542 53.2138 33.1542 53.0256C33.1542 52.8717 33.1974 52.7356 33.2838 52.6172C33.3714 52.4988 33.4903 52.4059 33.6407 52.3384C33.7922 52.271 33.9638 52.2372 34.1556 52.2372C34.4255 52.2372 34.6374 52.2964 34.7912 52.4148C34.9463 52.5331 35.0564 52.6894 35.1215 52.8835ZM38.3943 52.2727V52.6278H36.981V52.2727H38.3943ZM37.3929 51.6193H37.8119V54.2188C37.8119 54.3371 37.8291 54.4259 37.8634 54.4851C37.8989 54.5431 37.9439 54.5821 37.9984 54.6023C38.054 54.6212 38.1126 54.6307 38.1741 54.6307C38.2203 54.6307 38.2582 54.6283 38.2878 54.6236C38.3174 54.6177 38.341 54.6129 38.3588 54.6094L38.444 54.9858C38.4156 54.9964 38.376 55.0071 38.3251 55.0178C38.2742 55.0296 38.2097 55.0355 38.1315 55.0355C38.0132 55.0355 37.8972 55.0101 37.7835 54.9592C37.6711 54.9083 37.5775 54.8307 37.503 54.7266C37.4296 54.6224 37.3929 54.491 37.3929 54.3324V51.6193ZM40.1033 55.0568C39.8571 55.0568 39.6411 54.9982 39.4552 54.881C39.2706 54.7638 39.1261 54.5999 39.022 54.3892C38.919 54.1785 38.8675 53.9323 38.8675 53.6506C38.8675 53.3665 38.919 53.1185 39.022 52.9066C39.1261 52.6947 39.2706 52.5302 39.4552 52.413C39.6411 52.2958 39.8571 52.2372 40.1033 52.2372C40.3495 52.2372 40.5649 52.2958 40.7496 52.413C40.9354 52.5302 41.0799 52.6947 41.1828 52.9066C41.287 53.1185 41.3391 53.3665 41.3391 53.6506C41.3391 53.9323 41.287 54.1785 41.1828 54.3892C41.0799 54.5999 40.9354 54.7638 40.7496 54.881C40.5649 54.9982 40.3495 55.0568 40.1033 55.0568ZM40.1033 54.6804C40.2903 54.6804 40.4442 54.6325 40.5649 54.5366C40.6857 54.4407 40.7751 54.3146 40.8331 54.1584C40.8911 54.0021 40.9201 53.8329 40.9201 53.6506C40.9201 53.4683 40.8911 53.2984 40.8331 53.141C40.7751 52.9835 40.6857 52.8563 40.5649 52.7592C40.4442 52.6622 40.2903 52.6136 40.1033 52.6136C39.9163 52.6136 39.7624 52.6622 39.6416 52.7592C39.5209 52.8563 39.4315 52.9835 39.3735 53.141C39.3155 53.2984 39.2865 53.4683 39.2865 53.6506C39.2865 53.8329 39.3155 54.0021 39.3735 54.1584C39.4315 54.3146 39.5209 54.4407 39.6416 54.5366C39.7624 54.6325 39.9163 54.6804 40.1033 54.6804ZM43.4418 55V51.3636H44.6705C44.9558 51.3636 45.189 51.4151 45.3701 51.5181C45.5524 51.6199 45.6873 51.7578 45.7749 51.9318C45.8625 52.1058 45.9063 52.3 45.9063 52.5142C45.9063 52.7285 45.8625 52.9232 45.7749 53.0984C45.6885 53.2736 45.5547 53.4132 45.3736 53.5174C45.1925 53.6204 44.9605 53.6719 44.6776 53.6719H43.7969V53.2812H44.6634C44.8587 53.2812 45.0156 53.2475 45.1339 53.18C45.2523 53.1126 45.3381 53.0214 45.3914 52.9066C45.4458 52.7906 45.4731 52.6598 45.4731 52.5142C45.4731 52.3686 45.4458 52.2384 45.3914 52.1236C45.3381 52.0088 45.2517 51.9188 45.1321 51.8537C45.0126 51.7874 44.854 51.7543 44.6563 51.7543H43.8821V55H43.4418ZM47.673 55.0568C47.4102 55.0568 47.1835 54.9988 46.9929 54.8828C46.8035 54.7656 46.6574 54.6023 46.5544 54.3928C46.4526 54.1821 46.4017 53.937 46.4017 53.6577C46.4017 53.3783 46.4526 53.1321 46.5544 52.919C46.6574 52.7048 46.8006 52.5379 46.9841 52.4183C47.1687 52.2976 47.3842 52.2372 47.6304 52.2372C47.7724 52.2372 47.9127 52.2609 48.0512 52.3082C48.1897 52.3556 48.3157 52.4325 48.4294 52.5391C48.543 52.6444 48.6336 52.7841 48.701 52.9581C48.7685 53.1321 48.8022 53.3464 48.8022 53.6009V53.7784H46.7V53.4162H48.3761C48.3761 53.2623 48.3453 53.125 48.2838 53.0043C48.2234 52.8835 48.137 52.7882 48.0245 52.7184C47.9133 52.6486 47.7819 52.6136 47.6304 52.6136C47.4635 52.6136 47.3191 52.6551 47.1971 52.7379C47.0764 52.8196 46.9835 52.9261 46.9184 53.0575C46.8533 53.1889 46.8207 53.3298 46.8207 53.4801V53.7216C46.8207 53.9276 46.8562 54.1022 46.9272 54.2454C46.9995 54.3874 47.0995 54.4957 47.2273 54.5703C47.3552 54.6437 47.5037 54.6804 47.673 54.6804C47.7831 54.6804 47.8825 54.665 47.9713 54.6342C48.0612 54.6023 48.1388 54.5549 48.2039 54.4922C48.269 54.4283 48.3193 54.349 48.3548 54.2543L48.7596 54.3679C48.717 54.5052 48.6454 54.6259 48.5448 54.7301C48.4442 54.8331 48.3199 54.9136 48.1719 54.9716C48.024 55.0284 47.8576 55.0568 47.673 55.0568ZM49.4397 55V52.2727H49.8445V52.6847H49.8729C49.9226 52.5497 50.0126 52.4402 50.1428 52.3562C50.273 52.2721 50.4198 52.2301 50.5831 52.2301C50.6139 52.2301 50.6524 52.2307 50.6986 52.2319C50.7447 52.2331 50.7796 52.2348 50.8033 52.2372V52.6634C50.7891 52.6598 50.7566 52.6545 50.7057 52.6474C50.6559 52.6391 50.6033 52.6349 50.5476 52.6349C50.4151 52.6349 50.2967 52.6628 50.1925 52.7184C50.0895 52.7728 50.0079 52.8486 49.9475 52.9457C49.8883 53.0415 49.8587 53.151 49.8587 53.2741V55H49.4397ZM52.6854 52.2727V52.6278H51.2152V52.2727H52.6854ZM51.6556 55V51.8963C51.6556 51.7401 51.6923 51.6098 51.7657 51.5057C51.8391 51.4015 51.9343 51.3234 52.0515 51.2713C52.1687 51.2192 52.2924 51.1932 52.4226 51.1932C52.5256 51.1932 52.6097 51.2015 52.6748 51.218C52.7399 51.2346 52.7884 51.25 52.8204 51.2642L52.6996 51.6264C52.6783 51.6193 52.6487 51.6104 52.6108 51.5998C52.5741 51.5891 52.5256 51.5838 52.4652 51.5838C52.3267 51.5838 52.2267 51.6187 52.1652 51.6886C52.1048 51.7584 52.0746 51.8608 52.0746 51.9957V55H51.6556ZM54.3038 55.0568C54.0411 55.0568 53.8144 54.9988 53.6238 54.8828C53.4344 54.7656 53.2882 54.6023 53.1852 54.3928C53.0834 54.1821 53.0325 53.937 53.0325 53.6577C53.0325 53.3783 53.0834 53.1321 53.1852 52.919C53.2882 52.7048 53.4314 52.5379 53.6149 52.4183C53.7996 52.2976 54.015 52.2372 54.2612 52.2372C54.4033 52.2372 54.5435 52.2609 54.682 52.3082C54.8205 52.3556 54.9466 52.4325 55.0602 52.5391C55.1739 52.6444 55.2644 52.7841 55.3319 52.9581C55.3994 53.1321 55.4331 53.3464 55.4331 53.6009V53.7784H53.3308V53.4162H55.007C55.007 53.2623 54.9762 53.125 54.9146 53.0043C54.8543 52.8835 54.7679 52.7882 54.6554 52.7184C54.5441 52.6486 54.4127 52.6136 54.2612 52.6136C54.0943 52.6136 53.9499 52.6551 53.828 52.7379C53.7073 52.8196 53.6143 52.9261 53.5492 53.0575C53.4841 53.1889 53.4516 53.3298 53.4516 53.4801V53.7216C53.4516 53.9276 53.4871 54.1022 53.5581 54.2454C53.6303 54.3874 53.7303 54.4957 53.8582 54.5703C53.986 54.6437 54.1346 54.6804 54.3038 54.6804C54.4139 54.6804 54.5134 54.665 54.6021 54.6342C54.6921 54.6023 54.7696 54.5549 54.8347 54.4922C54.8998 54.4283 54.9502 54.349 54.9857 54.2543L55.3905 54.3679C55.3479 54.5052 55.2763 54.6259 55.1756 54.7301C55.075 54.8331 54.9507 54.9136 54.8028 54.9716C54.6548 55.0284 54.4885 55.0568 54.3038 55.0568ZM57.1785 55.0568C56.9228 55.0568 56.7026 54.9964 56.518 54.8757C56.3333 54.755 56.1913 54.5887 56.0918 54.3768C55.9924 54.1649 55.9427 53.9228 55.9427 53.6506C55.9427 53.3736 55.9936 53.1291 56.0954 52.9173C56.1984 52.7042 56.3416 52.5379 56.5251 52.4183C56.7097 52.2976 56.9252 52.2372 57.1714 52.2372C57.3631 52.2372 57.536 52.2727 57.6899 52.3438C57.8437 52.4148 57.9698 52.5142 58.068 52.642C58.1663 52.7699 58.2273 52.919 58.2509 53.0895H57.8319C57.7999 52.9652 57.7289 52.8551 57.6188 52.7592C57.5099 52.6622 57.3631 52.6136 57.1785 52.6136C57.0151 52.6136 56.8719 52.6562 56.7488 52.7415C56.6269 52.8255 56.5316 52.9445 56.4629 53.0984C56.3955 53.2511 56.3617 53.4304 56.3617 53.6364C56.3617 53.8471 56.3949 54.0305 56.4612 54.1868C56.5286 54.343 56.6233 54.4644 56.7453 54.5508C56.8684 54.6372 57.0128 54.6804 57.1785 54.6804C57.2874 54.6804 57.3862 54.6615 57.475 54.6236C57.5638 54.5857 57.639 54.5312 57.7005 54.4602C57.7621 54.3892 57.8059 54.304 57.8319 54.2045H58.2509C58.2273 54.3655 58.1687 54.5105 58.0752 54.6396C57.9828 54.7674 57.8603 54.8692 57.7076 54.945C57.5561 55.0195 57.3797 55.0568 57.1785 55.0568ZM60.0496 52.2727V52.6278H58.6362V52.2727H60.0496ZM59.0482 51.6193H59.4672V54.2188C59.4672 54.3371 59.4844 54.4259 59.5187 54.4851C59.5542 54.5431 59.5992 54.5821 59.6536 54.6023C59.7093 54.6212 59.7679 54.6307 59.8294 54.6307C59.8756 54.6307 59.9135 54.6283 59.943 54.6236C59.9726 54.6177 59.9963 54.6129 60.0141 54.6094L60.0993 54.9858C60.0709 54.9964 60.0312 55.0071 59.9803 55.0178C59.9294 55.0296 59.8649 55.0355 59.7868 55.0355C59.6684 55.0355 59.5524 55.0101 59.4388 54.9592C59.3263 54.9083 59.2328 54.8307 59.1582 54.7266C59.0849 54.6224 59.0482 54.491 59.0482 54.3324V51.6193ZM60.6799 55V52.2727H61.0989V55H60.6799ZM60.893 51.8182C60.8113 51.8182 60.7409 51.7904 60.6817 51.7347C60.6237 51.6791 60.5947 51.6122 60.5947 51.5341C60.5947 51.456 60.6237 51.3891 60.6817 51.3335C60.7409 51.2778 60.8113 51.25 60.893 51.25C60.9747 51.25 61.0445 51.2778 61.1025 51.3335C61.1617 51.3891 61.1913 51.456 61.1913 51.5341C61.1913 51.6122 61.1617 51.6791 61.1025 51.7347C61.0445 51.7904 60.9747 51.8182 60.893 51.8182ZM62.9744 55.0568C62.7282 55.0568 62.5121 54.9982 62.3263 54.881C62.1416 54.7638 61.9972 54.5999 61.8931 54.3892C61.7901 54.1785 61.7386 53.9323 61.7386 53.6506C61.7386 53.3665 61.7901 53.1185 61.8931 52.9066C61.9972 52.6947 62.1416 52.5302 62.3263 52.413C62.5121 52.2958 62.7282 52.2372 62.9744 52.2372C63.2206 52.2372 63.436 52.2958 63.6207 52.413C63.8065 52.5302 63.951 52.6947 64.0539 52.9066C64.1581 53.1185 64.2102 53.3665 64.2102 53.6506C64.2102 53.9323 64.1581 54.1785 64.0539 54.3892C63.951 54.5999 63.8065 54.7638 63.6207 54.881C63.436 54.9982 63.2206 55.0568 62.9744 55.0568ZM62.9744 54.6804C63.1614 54.6804 63.3153 54.6325 63.436 54.5366C63.5568 54.4407 63.6461 54.3146 63.7041 54.1584C63.7621 54.0021 63.7911 53.8329 63.7911 53.6506C63.7911 53.4683 63.7621 53.2984 63.7041 53.141C63.6461 52.9835 63.5568 52.8563 63.436 52.7592C63.3153 52.6622 63.1614 52.6136 62.9744 52.6136C62.7874 52.6136 62.6335 52.6622 62.5127 52.7592C62.392 52.8563 62.3026 52.9835 62.2446 53.141C62.1866 53.2984 62.1576 53.4683 62.1576 53.6506C62.1576 53.8329 62.1866 54.0021 62.2446 54.1584C62.3026 54.3146 62.392 54.4407 62.5127 54.5366C62.6335 54.6325 62.7874 54.6804 62.9744 54.6804ZM65.2689 53.3594V55H64.8498V52.2727H65.2547V52.6989H65.2902C65.3541 52.5604 65.4512 52.4491 65.5814 52.3651C65.7116 52.2798 65.8797 52.2372 66.0856 52.2372C66.2703 52.2372 66.4319 52.2751 66.5704 52.3509C66.7089 52.4254 66.8166 52.5391 66.8935 52.6918C66.9705 52.8433 67.0089 53.035 67.0089 53.267V55H66.5899V53.2955C66.5899 53.0812 66.5343 52.9143 66.423 52.7947C66.3117 52.674 66.159 52.6136 65.9649 52.6136C65.8311 52.6136 65.7116 52.6426 65.6062 52.7006C65.5021 52.7586 65.4198 52.8433 65.3594 52.9545C65.2991 53.0658 65.2689 53.2008 65.2689 53.3594ZM71.2263 52.2727C71.205 52.0928 71.1186 51.9531 70.9671 51.8537C70.8156 51.7543 70.6297 51.7045 70.4096 51.7045C70.2486 51.7045 70.1077 51.7306 69.987 51.7827C69.8674 51.8348 69.7739 51.9064 69.7065 51.9975C69.6402 52.0887 69.607 52.1922 69.607 52.3082C69.607 52.4053 69.6301 52.4888 69.6763 52.5586C69.7236 52.6272 69.784 52.6847 69.8574 52.7308C69.9308 52.7758 70.0077 52.8131 70.0882 52.8427C70.1687 52.8711 70.2427 52.8942 70.3101 52.9119L70.6795 53.0114C70.7742 53.0362 70.8795 53.0705 70.9955 53.1143C71.1127 53.1581 71.2246 53.2179 71.3311 53.2937C71.4388 53.3683 71.5276 53.4641 71.5974 53.5813C71.6673 53.6985 71.7022 53.8423 71.7022 54.0128C71.7022 54.2093 71.6507 54.3868 71.5477 54.5455C71.4459 54.7041 71.2968 54.8301 71.1003 54.9237C70.905 55.0172 70.6676 55.0639 70.3883 55.0639C70.1279 55.0639 69.9024 55.0219 69.7118 54.9379C69.5224 54.8538 69.3732 54.7366 69.2643 54.5863C69.1566 54.436 69.0957 54.2614 69.0815 54.0625H69.536C69.5478 54.1998 69.594 54.3134 69.6745 54.4034C69.7562 54.4922 69.8592 54.5585 69.9834 54.6023C70.1089 54.6449 70.2439 54.6662 70.3883 54.6662C70.5564 54.6662 70.7073 54.639 70.841 54.5845C70.9748 54.5289 71.0807 54.4519 71.1589 54.3537C71.237 54.2543 71.2761 54.1383 71.2761 54.0057C71.2761 53.8849 71.2423 53.7867 71.1748 53.7109C71.1074 53.6352 71.0186 53.5736 70.9085 53.5263C70.7984 53.4789 70.6795 53.4375 70.5516 53.402L70.1042 53.2741C69.8201 53.1925 69.5952 53.0759 69.4295 52.9244C69.2637 52.7728 69.1809 52.5746 69.1809 52.3295C69.1809 52.1259 69.2359 51.9484 69.346 51.7969C69.4573 51.6442 69.6064 51.5258 69.7935 51.4418C69.9817 51.3565 70.1918 51.3139 70.4238 51.3139C70.6582 51.3139 70.8665 51.3559 71.0488 51.44C71.2311 51.5228 71.3755 51.6365 71.482 51.7809C71.5897 51.9253 71.6466 52.0893 71.6525 52.2727H71.2263ZM72.3694 55V52.2727H72.7884V55H72.3694ZM72.5824 51.8182C72.5008 51.8182 72.4303 51.7904 72.3711 51.7347C72.3131 51.6791 72.2841 51.6122 72.2841 51.5341C72.2841 51.456 72.3131 51.3891 72.3711 51.3335C72.4303 51.2778 72.5008 51.25 72.5824 51.25C72.6641 51.25 72.7339 51.2778 72.7919 51.3335C72.8511 51.3891 72.8807 51.456 72.8807 51.5341C72.8807 51.6122 72.8511 51.6791 72.7919 51.7347C72.7339 51.7904 72.6641 51.8182 72.5824 51.8182ZM73.9749 53.3594V55H73.5559V52.2727H73.9607V52.6989H73.9962C74.0601 52.5604 74.1572 52.4491 74.2874 52.3651C74.4176 52.2798 74.5857 52.2372 74.7917 52.2372C74.9763 52.2372 75.1379 52.2751 75.2764 52.3509C75.4149 52.4254 75.5226 52.5391 75.5996 52.6918C75.6765 52.8433 75.715 53.035 75.715 53.267V55H75.2959V53.2955C75.2959 53.0812 75.2403 52.9143 75.129 52.7947C75.0178 52.674 74.8651 52.6136 74.6709 52.6136C74.5372 52.6136 74.4176 52.6426 74.3123 52.7006C74.2081 52.7586 74.1258 52.8433 74.0655 52.9545C74.0051 53.0658 73.9749 53.2008 73.9749 53.3594ZM77.5886 55.0568C77.333 55.0568 77.1128 54.9964 76.9281 54.8757C76.7435 54.755 76.6014 54.5887 76.502 54.3768C76.4026 54.1649 76.3528 53.9228 76.3528 53.6506C76.3528 53.3736 76.4037 53.1291 76.5055 52.9173C76.6085 52.7042 76.7518 52.5379 76.9352 52.4183C77.1199 52.2976 77.3353 52.2372 77.5815 52.2372C77.7733 52.2372 77.9461 52.2727 78.1 52.3438C78.2539 52.4148 78.38 52.5142 78.4782 52.642C78.5765 52.7699 78.6374 52.919 78.6611 53.0895H78.2421C78.2101 52.9652 78.1391 52.8551 78.029 52.7592C77.9201 52.6622 77.7733 52.6136 77.5886 52.6136C77.4253 52.6136 77.2821 52.6562 77.159 52.7415C77.037 52.8255 76.9417 52.9445 76.8731 53.0984C76.8056 53.2511 76.7719 53.4304 76.7719 53.6364C76.7719 53.8471 76.805 54.0305 76.8713 54.1868C76.9388 54.343 77.0335 54.4644 77.1554 54.5508C77.2785 54.6372 77.4229 54.6804 77.5886 54.6804C77.6975 54.6804 77.7964 54.6615 77.8852 54.6236C77.9739 54.5857 78.0491 54.5312 78.1107 54.4602C78.1722 54.3892 78.216 54.304 78.2421 54.2045H78.6611C78.6374 54.3655 78.5788 54.5105 78.4853 54.6396C78.393 54.7674 78.2705 54.8692 78.1178 54.945C77.9662 55.0195 77.7899 55.0568 77.5886 55.0568ZM80.4171 55.0568C80.1543 55.0568 79.9277 54.9988 79.7371 54.8828C79.5477 54.7656 79.4015 54.6023 79.2985 54.3928C79.1967 54.1821 79.1458 53.937 79.1458 53.6577C79.1458 53.3783 79.1967 53.1321 79.2985 52.919C79.4015 52.7048 79.5447 52.5379 79.7282 52.4183C79.9129 52.2976 80.1283 52.2372 80.3745 52.2372C80.5166 52.2372 80.6568 52.2609 80.7953 52.3082C80.9338 52.3556 81.0599 52.4325 81.1735 52.5391C81.2872 52.6444 81.3777 52.7841 81.4452 52.9581C81.5127 53.1321 81.5464 53.3464 81.5464 53.6009V53.7784H79.4441V53.4162H81.1203C81.1203 53.2623 81.0895 53.125 81.0279 53.0043C80.9676 52.8835 80.8811 52.7882 80.7687 52.7184C80.6574 52.6486 80.526 52.6136 80.3745 52.6136C80.2076 52.6136 80.0632 52.6551 79.9413 52.7379C79.8205 52.8196 79.7276 52.9261 79.6625 53.0575C79.5974 53.1889 79.5649 53.3298 79.5649 53.4801V53.7216C79.5649 53.9276 79.6004 54.1022 79.6714 54.2454C79.7436 54.3874 79.8436 54.4957 79.9715 54.5703C80.0993 54.6437 80.2479 54.6804 80.4171 54.6804C80.5272 54.6804 80.6266 54.665 80.7154 54.6342C80.8054 54.6023 80.8829 54.5549 80.948 54.4922C81.0131 54.4283 81.0634 54.349 81.0989 54.2543L81.5038 54.3679C81.4612 54.5052 81.3895 54.6259 81.2889 54.7301C81.1883 54.8331 81.064 54.9136 80.9161 54.9716C80.7681 55.0284 80.6018 55.0568 80.4171 55.0568ZM83.583 55V54.6804L84.7832 53.3665C84.9241 53.2126 85.0401 53.0788 85.1313 52.9652C85.2224 52.8504 85.2899 52.7427 85.3337 52.642C85.3787 52.5402 85.4011 52.4337 85.4011 52.3224C85.4011 52.1946 85.3704 52.0839 85.3088 51.9904C85.2484 51.8969 85.1656 51.8247 85.0602 51.7738C84.9549 51.7229 84.8365 51.6974 84.7051 51.6974C84.5654 51.6974 84.4435 51.7264 84.3394 51.7844C84.2364 51.8413 84.1565 51.9212 84.0997 52.0241C84.044 52.1271 84.0162 52.2479 84.0162 52.3864H83.5972C83.5972 52.1733 83.6463 51.9863 83.7445 51.8253C83.8428 51.6643 83.9765 51.5388 84.1458 51.4489C84.3163 51.3589 84.5074 51.3139 84.7193 51.3139C84.9324 51.3139 85.1212 51.3589 85.2857 51.4489C85.4503 51.5388 85.5793 51.6602 85.6728 51.8129C85.7663 51.9656 85.8131 52.1354 85.8131 52.3224C85.8131 52.4562 85.7888 52.587 85.7403 52.7148C85.6929 52.8415 85.6101 52.983 85.4917 53.1392C85.3745 53.2943 85.2118 53.4837 85.0034 53.7074L84.1867 54.581V54.6094H85.877V55H83.583ZM87.7964 55.0497C87.5289 55.0497 87.301 54.9769 87.1128 54.8313C86.9246 54.6845 86.7808 54.4721 86.6813 54.1939C86.5819 53.9145 86.5322 53.5772 86.5322 53.1818C86.5322 52.7888 86.5819 52.4532 86.6813 52.1751C86.7819 51.8957 86.9264 51.6826 87.1146 51.5359C87.304 51.3879 87.5312 51.3139 87.7964 51.3139C88.0615 51.3139 88.2882 51.3879 88.4764 51.5359C88.6658 51.6826 88.8102 51.8957 88.9097 52.1751C89.0103 52.4532 89.0606 52.7888 89.0606 53.1818C89.0606 53.5772 89.0109 53.9145 88.9114 54.1939C88.812 54.4721 88.6682 54.6845 88.48 54.8313C88.2918 54.9769 88.0639 55.0497 87.7964 55.0497ZM87.7964 54.6591C88.0615 54.6591 88.2675 54.5312 88.4143 54.2756C88.5611 54.0199 88.6345 53.6553 88.6345 53.1818C88.6345 52.867 88.6007 52.5988 88.5332 52.3775C88.467 52.1561 88.3711 51.9875 88.2456 51.8714C88.1213 51.7554 87.9716 51.6974 87.7964 51.6974C87.5336 51.6974 87.3282 51.8271 87.1803 52.0863C87.0323 52.3443 86.9583 52.7095 86.9583 53.1818C86.9583 53.4967 86.9915 53.7642 87.0578 53.9844C87.124 54.2045 87.2193 54.372 87.3436 54.4869C87.4691 54.6017 87.62 54.6591 87.7964 54.6591ZM89.7353 55V54.6804L90.9356 53.3665C91.0765 53.2126 91.1925 53.0788 91.2836 52.9652C91.3747 52.8504 91.4422 52.7427 91.486 52.642C91.531 52.5402 91.5535 52.4337 91.5535 52.3224C91.5535 52.1946 91.5227 52.0839 91.4612 51.9904C91.4008 51.8969 91.3179 51.8247 91.2126 51.7738C91.1072 51.7229 90.9889 51.6974 90.8575 51.6974C90.7178 51.6974 90.5959 51.7264 90.4917 51.7844C90.3887 51.8413 90.3088 51.9212 90.252 52.0241C90.1964 52.1271 90.1685 52.2479 90.1685 52.3864H89.7495C89.7495 52.1733 89.7986 51.9863 89.8969 51.8253C89.9951 51.6643 90.1289 51.5388 90.2982 51.4489C90.4686 51.3589 90.6598 51.3139 90.8717 51.3139C91.0847 51.3139 91.2735 51.3589 91.4381 51.4489C91.6026 51.5388 91.7316 51.6602 91.8252 51.8129C91.9187 51.9656 91.9654 52.1354 91.9654 52.3224C91.9654 52.4562 91.9412 52.587 91.8926 52.7148C91.8453 52.8415 91.7624 52.983 91.644 53.1392C91.5269 53.2943 91.3641 53.4837 91.1558 53.7074L90.339 54.581V54.6094H92.0293V55H89.7353ZM93.9487 55.0497C93.6812 55.0497 93.4533 54.9769 93.2651 54.8313C93.0769 54.6845 92.9331 54.4721 92.8337 54.1939C92.7342 53.9145 92.6845 53.5772 92.6845 53.1818C92.6845 52.7888 92.7342 52.4532 92.8337 52.1751C92.9343 51.8957 93.0787 51.6826 93.2669 51.5359C93.4563 51.3879 93.6836 51.3139 93.9487 51.3139C94.2139 51.3139 94.4406 51.3879 94.6288 51.5359C94.8182 51.6826 94.9626 51.8957 95.062 52.1751C95.1626 52.4532 95.2129 52.7888 95.2129 53.1818C95.2129 53.5772 95.1632 53.9145 95.0638 54.1939C94.9644 54.4721 94.8205 54.6845 94.6323 54.8313C94.4441 54.9769 94.2162 55.0497 93.9487 55.0497ZM93.9487 54.6591C94.2139 54.6591 94.4198 54.5312 94.5666 54.2756C94.7134 54.0199 94.7868 53.6553 94.7868 53.1818C94.7868 52.867 94.7531 52.5988 94.6856 52.3775C94.6193 52.1561 94.5234 51.9875 94.3979 51.8714C94.2737 51.7554 94.1239 51.6974 93.9487 51.6974C93.6859 51.6974 93.4806 51.8271 93.3326 52.0863C93.1846 52.3443 93.1107 52.7095 93.1107 53.1818C93.1107 53.4967 93.1438 53.7642 93.2101 53.9844C93.2764 54.2045 93.3717 54.372 93.496 54.4869C93.6214 54.6017 93.7724 54.6591 93.9487 54.6591Z" fill="#353535"/>
<path d="M12.0945 48V39.2727H15.5888C16.2308 39.2727 16.7663 39.3679 17.1953 39.5582C17.6243 39.7486 17.9467 40.0128 18.1626 40.3509C18.3786 40.6861 18.4865 41.0724 18.4865 41.5099C18.4865 41.8509 18.4183 42.1506 18.282 42.4091C18.1456 42.6648 17.9581 42.875 17.7195 43.0398C17.4837 43.2017 17.2138 43.3168 16.9098 43.3849V43.4702C17.2422 43.4844 17.5533 43.5781 17.843 43.7514C18.1357 43.9247 18.3729 44.1676 18.5547 44.4801C18.7365 44.7898 18.8274 45.1591 18.8274 45.5881C18.8274 46.0511 18.7124 46.4645 18.4822 46.8281C18.255 47.1889 17.9183 47.4744 17.4723 47.6847C17.0263 47.8949 16.4766 48 15.8232 48H12.0945ZM13.9396 46.4915H15.4439C15.9581 46.4915 16.3331 46.3935 16.5689 46.1974C16.8047 45.9986 16.9226 45.7344 16.9226 45.4048C16.9226 45.1634 16.8643 44.9503 16.7479 44.7656C16.6314 44.581 16.4652 44.4361 16.2493 44.331C16.0362 44.2259 15.782 44.1733 15.4865 44.1733H13.9396V46.4915ZM13.9396 42.9247H15.3075C15.5604 42.9247 15.7848 42.8807 15.9808 42.7926C16.1797 42.7017 16.3359 42.5739 16.4496 42.4091C16.5661 42.2443 16.6243 42.0469 16.6243 41.8168C16.6243 41.5014 16.5121 41.2472 16.2876 41.054C16.0661 40.8608 15.7507 40.7642 15.3416 40.7642H13.9396V42.9247ZM22.9513 48.1278C22.2894 48.1278 21.717 47.9872 21.234 47.706C20.7539 47.4219 20.3832 47.027 20.1218 46.5213C19.8604 46.0128 19.7298 45.4233 19.7298 44.7528C19.7298 44.0767 19.8604 43.4858 20.1218 42.9801C20.3832 42.4716 20.7539 42.0767 21.234 41.7955C21.717 41.5114 22.2894 41.3693 22.9513 41.3693C23.6133 41.3693 24.1843 41.5114 24.6644 41.7955C25.1474 42.0767 25.5195 42.4716 25.7809 42.9801C26.0423 43.4858 26.1729 44.0767 26.1729 44.7528C26.1729 45.4233 26.0423 46.0128 25.7809 46.5213C25.5195 47.027 25.1474 47.4219 24.6644 47.706C24.1843 47.9872 23.6133 48.1278 22.9513 48.1278ZM22.9599 46.7216C23.261 46.7216 23.5124 46.6364 23.7141 46.4659C23.9158 46.2926 24.0678 46.0568 24.1701 45.7585C24.2752 45.4602 24.3278 45.1207 24.3278 44.7401C24.3278 44.3594 24.2752 44.0199 24.1701 43.7216C24.0678 43.4233 23.9158 43.1875 23.7141 43.0142C23.5124 42.8409 23.261 42.7543 22.9599 42.7543C22.6559 42.7543 22.4002 42.8409 22.1928 43.0142C21.9883 43.1875 21.8335 43.4233 21.7283 43.7216C21.6261 44.0199 21.5749 44.3594 21.5749 44.7401C21.5749 45.1207 21.6261 45.4602 21.7283 45.7585C21.8335 46.0568 21.9883 46.2926 22.1928 46.4659C22.4002 46.6364 22.6559 46.7216 22.9599 46.7216ZM29.1687 44.2159V48H27.3533V41.4545H29.0835V42.6094H29.1602C29.305 42.2287 29.5479 41.9276 29.8888 41.706C30.2298 41.4815 30.6431 41.3693 31.1289 41.3693C31.5835 41.3693 31.9798 41.4688 32.3178 41.6676C32.6559 41.8665 32.9187 42.1506 33.1062 42.5199C33.2937 42.8864 33.3874 43.3239 33.3874 43.8324V48H31.5721V44.1562C31.5749 43.7557 31.4727 43.4432 31.2653 43.2188C31.0579 42.9915 30.7724 42.8778 30.4087 42.8778C30.1644 42.8778 29.9485 42.9304 29.761 43.0355C29.5763 43.1406 29.4315 43.294 29.3263 43.4957C29.2241 43.6946 29.1715 43.9347 29.1687 44.2159ZM34.8182 41.4545H36.6335V48.3239C36.6335 48.8295 36.5341 49.2386 36.3352 49.5511C36.1364 49.8636 35.8509 50.0923 35.4787 50.2372C35.1094 50.3821 34.6676 50.4545 34.1534 50.4545C34.0909 50.4545 34.0312 50.4531 33.9744 50.4503C33.9148 50.4503 33.8523 50.4489 33.7869 50.446V49.027C33.8352 49.0298 33.8778 49.0312 33.9148 49.0312C33.9489 49.0341 33.9858 49.0355 34.0256 49.0355C34.3182 49.0355 34.5227 48.973 34.6392 48.848C34.7585 48.7259 34.8182 48.5412 34.8182 48.294V41.4545ZM35.7216 40.6108C35.4545 40.6108 35.2244 40.5213 35.0312 40.3423C34.8381 40.1605 34.7415 39.9432 34.7415 39.6903C34.7415 39.4403 34.8381 39.2259 35.0312 39.0469C35.2244 38.8651 35.4545 38.7741 35.7216 38.7741C35.9943 38.7741 36.2259 38.8651 36.4162 39.0469C36.6094 39.2259 36.706 39.4403 36.706 39.6903C36.706 39.9432 36.6094 40.1605 36.4162 40.3423C36.2259 40.5213 35.9943 40.6108 35.7216 40.6108ZM39.9542 48.1236C39.5366 48.1236 39.1644 48.0511 38.8377 47.9062C38.511 47.7585 38.2525 47.5412 38.0621 47.2543C37.8746 46.9645 37.7809 46.6037 37.7809 46.1719C37.7809 45.8082 37.8477 45.5028 37.9812 45.2557C38.1147 45.0085 38.2965 44.8097 38.5266 44.6591C38.7567 44.5085 39.0181 44.3949 39.3107 44.3182C39.6062 44.2415 39.9158 44.1875 40.2397 44.1562C40.6204 44.1165 40.9272 44.0795 41.1602 44.0455C41.3931 44.0085 41.5621 43.9545 41.6673 43.8835C41.7724 43.8125 41.8249 43.7074 41.8249 43.5682V43.5426C41.8249 43.2727 41.7397 43.0639 41.5692 42.9162C41.4016 42.7685 41.163 42.6946 40.8533 42.6946C40.5266 42.6946 40.2667 42.767 40.0735 42.9119C39.8803 43.054 39.7525 43.233 39.69 43.4489L38.011 43.3125C38.0962 42.9148 38.2638 42.571 38.5138 42.2812C38.7638 41.9886 39.0863 41.7642 39.4812 41.608C39.8789 41.4489 40.3391 41.3693 40.8619 41.3693C41.2255 41.3693 41.5735 41.4119 41.9059 41.4972C42.2411 41.5824 42.538 41.7145 42.7965 41.8935C43.0579 42.0724 43.2638 42.3026 43.4144 42.5838C43.565 42.8622 43.6403 43.196 43.6403 43.5852V48H41.9187V47.0923H41.8675C41.7624 47.2969 41.6218 47.4773 41.4457 47.6335C41.2695 47.7869 41.0579 47.9077 40.8107 47.9957C40.5636 48.081 40.2781 48.1236 39.9542 48.1236ZM40.4741 46.8707C40.7411 46.8707 40.9769 46.8182 41.1815 46.7131C41.386 46.6051 41.5465 46.4602 41.663 46.2784C41.7795 46.0966 41.8377 45.8906 41.8377 45.6605V44.9659C41.7809 45.0028 41.7028 45.0369 41.6033 45.0682C41.5067 45.0966 41.3974 45.1236 41.2752 45.1491C41.1531 45.1719 41.0309 45.1932 40.9087 45.2131C40.7866 45.2301 40.6758 45.2457 40.5763 45.2599C40.3633 45.2912 40.1772 45.3409 40.0181 45.4091C39.859 45.4773 39.7354 45.5696 39.6474 45.6861C39.5593 45.7997 39.5153 45.9418 39.5153 46.1122C39.5153 46.3594 39.6048 46.5483 39.7837 46.679C39.9656 46.8068 40.1957 46.8707 40.4741 46.8707ZM47.8601 48V39.2727H51.3033C51.9652 39.2727 52.5291 39.3991 52.995 39.652C53.4609 39.902 53.8161 40.25 54.0604 40.696C54.3075 41.1392 54.4311 41.6506 54.4311 42.2301C54.4311 42.8097 54.3061 43.321 54.0561 43.7642C53.8061 44.2074 53.4439 44.5526 52.9695 44.7997C52.4979 45.0469 51.9268 45.1705 51.2564 45.1705H49.0618V43.6918H50.9581C51.3132 43.6918 51.6058 43.6307 51.8359 43.5085C52.0689 43.3835 52.2422 43.2116 52.3558 42.9929C52.4723 42.7713 52.5305 42.517 52.5305 42.2301C52.5305 41.9403 52.4723 41.6875 52.3558 41.4716C52.2422 41.2528 52.0689 41.0838 51.8359 40.9645C51.603 40.8423 51.3075 40.7812 50.9496 40.7812H49.7053V48H47.8601ZM55.5955 48V41.4545H57.4109V48H55.5955ZM56.5075 40.6108C56.2376 40.6108 56.006 40.5213 55.8129 40.3423C55.6225 40.1605 55.5273 39.9432 55.5273 39.6903C55.5273 39.4403 55.6225 39.2259 55.8129 39.0469C56.006 38.8651 56.2376 38.7741 56.5075 38.7741C56.7773 38.7741 57.0075 38.8651 57.1978 39.0469C57.391 39.2259 57.4876 39.4403 57.4876 39.6903C57.4876 39.9432 57.391 40.1605 57.1978 40.3423C57.0075 40.5213 56.7773 40.6108 56.5075 40.6108ZM60.7315 48.1236C60.3139 48.1236 59.9418 48.0511 59.6151 47.9062C59.2884 47.7585 59.0298 47.5412 58.8395 47.2543C58.652 46.9645 58.5582 46.6037 58.5582 46.1719C58.5582 45.8082 58.625 45.5028 58.7585 45.2557C58.892 45.0085 59.0739 44.8097 59.304 44.6591C59.5341 44.5085 59.7955 44.3949 60.0881 44.3182C60.3835 44.2415 60.6932 44.1875 61.017 44.1562C61.3977 44.1165 61.7045 44.0795 61.9375 44.0455C62.1705 44.0085 62.3395 43.9545 62.4446 43.8835C62.5497 43.8125 62.6023 43.7074 62.6023 43.5682V43.5426C62.6023 43.2727 62.517 43.0639 62.3466 42.9162C62.179 42.7685 61.9403 42.6946 61.6307 42.6946C61.304 42.6946 61.044 42.767 60.8509 42.9119C60.6577 43.054 60.5298 43.233 60.4673 43.4489L58.7884 43.3125C58.8736 42.9148 59.0412 42.571 59.2912 42.2812C59.5412 41.9886 59.8636 41.7642 60.2585 41.608C60.6563 41.4489 61.1165 41.3693 61.6392 41.3693C62.0028 41.3693 62.3509 41.4119 62.6832 41.4972C63.0185 41.5824 63.3153 41.7145 63.5739 41.8935C63.8352 42.0724 64.0412 42.3026 64.1918 42.5838C64.3423 42.8622 64.4176 43.196 64.4176 43.5852V48H62.696V47.0923H62.6449C62.5398 47.2969 62.3991 47.4773 62.223 47.6335C62.0469 47.7869 61.8352 47.9077 61.5881 47.9957C61.3409 48.081 61.0554 48.1236 60.7315 48.1236ZM61.2514 46.8707C61.5185 46.8707 61.7543 46.8182 61.9588 46.7131C62.1634 46.6051 62.3239 46.4602 62.4403 46.2784C62.5568 46.0966 62.6151 45.8906 62.6151 45.6605V44.9659C62.5582 45.0028 62.4801 45.0369 62.3807 45.0682C62.2841 45.0966 62.1747 45.1236 62.0526 45.1491C61.9304 45.1719 61.8082 45.1932 61.6861 45.2131C61.5639 45.2301 61.4531 45.2457 61.3537 45.2599C61.1406 45.2912 60.9545 45.3409 60.7955 45.4091C60.6364 45.4773 60.5128 45.5696 60.4247 45.6861C60.3366 45.7997 60.2926 45.9418 60.2926 46.1122C60.2926 46.3594 60.3821 46.5483 60.5611 46.679C60.7429 46.8068 60.973 46.8707 61.2514 46.8707ZM67.6413 44.2159V48H65.826V41.4545H67.5561V42.6094H67.6328C67.7777 42.2287 68.0206 41.9276 68.3615 41.706C68.7024 41.4815 69.1158 41.3693 69.6016 41.3693C70.0561 41.3693 70.4524 41.4688 70.7905 41.6676C71.1286 41.8665 71.3913 42.1506 71.5788 42.5199C71.7663 42.8864 71.8601 43.3239 71.8601 43.8324V48H70.0447V44.1562C70.0476 43.7557 69.9453 43.4432 69.7379 43.2188C69.5305 42.9915 69.245 42.8778 68.8814 42.8778C68.6371 42.8778 68.4212 42.9304 68.2337 43.0355C68.049 43.1406 67.9041 43.294 67.799 43.4957C67.6967 43.6946 67.6442 43.9347 67.6413 44.2159ZM76.2482 48.1278C75.5863 48.1278 75.0138 47.9872 74.5309 47.706C74.0508 47.4219 73.68 47.027 73.4187 46.5213C73.1573 46.0128 73.0266 45.4233 73.0266 44.7528C73.0266 44.0767 73.1573 43.4858 73.4187 42.9801C73.68 42.4716 74.0508 42.0767 74.5309 41.7955C75.0138 41.5114 75.5863 41.3693 76.2482 41.3693C76.9102 41.3693 77.4812 41.5114 77.9613 41.7955C78.4442 42.0767 78.8164 42.4716 79.0778 42.9801C79.3391 43.4858 79.4698 44.0767 79.4698 44.7528C79.4698 45.4233 79.3391 46.0128 79.0778 46.5213C78.8164 47.027 78.4442 47.4219 77.9613 47.706C77.4812 47.9872 76.9102 48.1278 76.2482 48.1278ZM76.2567 46.7216C76.5579 46.7216 76.8093 46.6364 77.011 46.4659C77.2127 46.2926 77.3647 46.0568 77.467 45.7585C77.5721 45.4602 77.6246 45.1207 77.6246 44.7401C77.6246 44.3594 77.5721 44.0199 77.467 43.7216C77.3647 43.4233 77.2127 43.1875 77.011 43.0142C76.8093 42.8409 76.5579 42.7543 76.2567 42.7543C75.9528 42.7543 75.6971 42.8409 75.4897 43.0142C75.2852 43.1875 75.1303 43.4233 75.0252 43.7216C74.9229 44.0199 74.8718 44.3594 74.8718 44.7401C74.8718 45.1207 74.9229 45.4602 75.0252 45.7585C75.1303 46.0568 75.2852 46.2926 75.4897 46.4659C75.6971 46.6364 75.9528 46.7216 76.2567 46.7216ZM86.0962 43.321L84.4343 43.4233C84.4059 43.2812 84.3448 43.1534 84.2511 43.0398C84.1573 42.9233 84.0337 42.831 83.8803 42.7628C83.7298 42.6918 83.5494 42.6562 83.3391 42.6562C83.0579 42.6562 82.8207 42.7159 82.6275 42.8352C82.4343 42.9517 82.3377 43.108 82.3377 43.304C82.3377 43.4602 82.4002 43.5923 82.5252 43.7003C82.6502 43.8082 82.8647 43.8949 83.1687 43.9602L84.3533 44.1989C84.9897 44.3295 85.4641 44.5398 85.7766 44.8295C86.0891 45.1193 86.2454 45.5 86.2454 45.9716C86.2454 46.4006 86.119 46.777 85.8661 47.1009C85.6161 47.4247 85.2724 47.6776 84.8349 47.8594C84.4002 48.0384 83.8988 48.1278 83.3306 48.1278C82.4641 48.1278 81.7738 47.9474 81.2596 47.5866C80.7482 47.223 80.4485 46.7287 80.3604 46.1037L82.146 46.0099C82.1999 46.2741 82.3306 46.4759 82.538 46.6151C82.7454 46.7514 83.011 46.8196 83.3349 46.8196C83.6531 46.8196 83.9087 46.7585 84.1019 46.6364C84.2979 46.5114 84.3974 46.3509 84.4002 46.1548C84.3974 45.9901 84.3278 45.8551 84.1914 45.75C84.055 45.642 83.8448 45.5597 83.5607 45.5028L82.4272 45.277C81.788 45.1491 81.3121 44.9276 80.9996 44.6122C80.69 44.2969 80.5352 43.8949 80.5352 43.4062C80.5352 42.9858 80.6488 42.6236 80.8761 42.3196C81.1062 42.0156 81.4286 41.7812 81.8434 41.6165C82.261 41.4517 82.7496 41.3693 83.3093 41.3693C84.136 41.3693 84.7866 41.544 85.261 41.8935C85.7383 42.2429 86.0167 42.7187 86.0962 43.321Z" fill="#353535"/>
<path d="M19 22.7143L22.6923 21H23.9231L27 22.7143V26.7143L23.9231 29H22.6923L19 26.7143V22.7143Z" fill="white" stroke="#353535"/>
<path d="M29.0471 23.5816L30.8299 21.104C30.8769 21.0387 30.9524 21 31.0329 21H37.4223C37.5142 21 37.5986 21.0504 37.6423 21.1313L38.97 23.5915C38.9897 23.628 39 23.6688 39 23.7102V27.257C39 27.3188 38.9772 27.3783 38.9359 27.4242L36.9788 29.6C36.8366 29.7581 36.5745 29.6778 36.5453 29.4671L35.6965 23.3334C35.6794 23.2097 35.5737 23.1176 35.4489 23.1176H32.5368C32.4183 23.1176 32.3161 23.2008 32.292 23.3168L31.0203 29.4432C30.9761 29.6563 30.6997 29.715 30.5726 29.5384L29.0471 27.4184C29.0165 27.3758 29 27.3247 29 27.2723V23.7277C29 23.6753 29.0165 23.6242 29.0471 23.5816Z" fill="#353535" stroke="#353535" stroke-width="0.5"/>
<path d="M64 6V12.5M64 12.5H62C61.4477 12.5 61 12.9477 61 13.5V32M64 12.5H68C68.5523 12.5 69 12.9477 69 13.5V32" stroke="#353535"/>
</svg>
