<svg version="1.1" id="Layer_1" xmlns="http://www.w3.org/2000/svg" xmlns:xlink="http://www.w3.org/1999/xlink" x="0px" y="0px"
	 width="100%" viewBox="0 0 1556 1489" enable-background="new 0 0 1556 1489" xml:space="preserve">
<path fill="#000000" opacity="1.000000" stroke="none" 
	d="
M1556.604980,813.698303 
	C1557.000000,860.354248 1557.000000,906.708435 1557.000000,953.531372 
	C1555.386719,955.466553 1553.374268,955.539124 1551.365723,955.592102 
	C1549.033936,955.653564 1546.700928,955.622803 1544.368530,955.622803 
	C1335.941406,955.623718 1127.514160,955.664062 919.087158,955.497498 
	C909.293762,955.489685 900.208069,956.327209 892.260315,962.544739 
	C891.089844,963.460388 889.596313,963.906555 887.493469,965.136047 
	C889.994446,965.503418 891.817200,965.369568 893.608154,965.369629 
	C1111.032227,965.376160 1328.456177,965.373291 1545.880249,965.404297 
	C1549.336914,965.404785 1552.897705,964.772461 1556.607422,966.700562 
	C1557.000000,1139.637695 1556.984985,1312.275391 1557.093628,1484.913086 
	C1557.096069,1488.910156 1556.555542,1490.129761 1552.088623,1490.128662 
	C1036.675049,1489.992188 521.261597,1489.994995 5.848094,1490.096313 
	C2.000485,1490.097046 0.872474,1489.614746 0.876065,1485.349487 
	C1.021274,1312.878906 1.000000,1140.408081 1.000000,967.468628 
	C2.612512,965.532349 4.624848,965.457886 6.633698,965.404358 
	C8.965692,965.342041 11.298809,965.373291 13.631438,965.373291 
	C197.579666,965.372375 381.527893,965.373047 565.476135,965.368713 
	C567.974182,965.368652 570.474243,965.445923 572.969482,965.227661 
	C574.688477,965.077332 576.263794,964.646484 577.270508,963.091309 
	C578.445801,961.276062 580.096191,959.329041 579.275391,957.176636 
	C578.402100,954.886719 575.844299,955.696167 573.974182,955.668762 
	C566.977478,955.566345 559.978699,955.627808 552.980652,955.627808 
	C372.531433,955.627319 192.082214,955.630737 11.633007,955.602234 
	C8.336994,955.601746 4.941266,956.183044 1.394478,954.301147 
	C1.000000,907.645752 1.000000,861.291565 1.000000,814.468628 
	C2.612171,812.531128 4.624957,812.454834 6.634426,812.400513 
	C8.967049,812.337463 11.300822,812.368958 13.634096,812.368958 
	C212.133163,812.368103 410.632233,812.368591 609.131287,812.365356 
	C611.630554,812.365295 614.130798,812.308472 616.628906,812.296021 
	C620.356018,812.277344 621.566528,810.055115 621.639343,806.841003 
	C621.723877,803.111389 618.754639,803.884949 616.610779,803.689331 
	C614.458618,803.492859 612.280701,803.632568 610.114136,803.632568 
	C410.615051,803.631531 211.115997,803.634949 11.616929,803.606628 
	C8.325785,803.606140 4.934506,804.185730 1.394371,802.300171 
	C1.000000,755.645752 1.000000,709.291565 1.000000,662.468628 
	C2.611470,660.531067 4.623736,660.453552 6.632932,660.399048 
	C8.965125,660.335693 11.298480,660.367493 13.631331,660.367493 
	C216.926849,660.366699 420.222351,660.366943 623.517883,660.365723 
	C625.684082,660.365723 627.851562,660.315918 630.016113,660.351379 
	C633.357056,660.406006 635.349426,659.330505 635.350830,655.504944 
	C635.352295,651.685242 633.375000,650.593140 630.026672,650.648804 
	C627.862244,650.684814 625.694702,650.634338 623.528503,650.634338 
	C419.733093,650.633118 215.937683,650.636536 12.142268,650.605774 
	C8.680429,650.605225 5.115578,651.233093 1.396504,649.303833 
	C1.000000,602.979126 1.000000,556.958191 1.000000,510.468658 
	C2.611863,508.531311 4.624299,508.454437 6.633557,508.400177 
	C8.965878,508.337158 11.299355,508.368530 13.632330,508.368530 
	C213.605759,508.367584 413.579193,508.367920 613.552612,508.365875 
	C615.885315,508.365845 618.220337,508.435638 620.550171,508.298126 
	C622.790833,508.165863 625.165955,507.968201 624.949158,504.865692 
	C624.750366,502.021332 624.498657,499.033875 620.545959,498.766449 
	C618.047119,498.597412 615.549377,498.636414 613.051086,498.636353 
	C412.577728,498.631683 212.104340,498.635468 11.630977,498.607147 
	C8.336123,498.606689 4.941760,499.185394 1.395521,497.302429 
	C1.000000,450.645782 1.000000,404.291534 1.000000,357.468658 
	C2.612888,355.532257 4.625570,355.457886 6.634744,355.404358 
	C8.967133,355.342163 11.300639,355.373291 13.633661,355.373291 
	C199.612610,355.372498 385.591553,355.372467 571.570496,355.372528 
	C572.903687,355.372528 574.257202,355.519562 575.565308,355.338074 
	C577.522766,355.066467 580.218262,356.447723 581.156311,353.617249 
	C581.835632,351.567322 578.102600,347.295471 575.538391,346.868774 
	C573.062744,346.456848 570.549316,346.632355 568.051697,346.632263 
	C414.235779,346.626862 260.419861,346.627594 106.603966,346.627441 
	C74.440941,346.627411 42.277901,346.638824 10.114903,346.608704 
	C7.313399,346.606079 4.429315,347.019135 1.392961,345.299591 
	C1.000000,231.688721 1.017037,118.377419 0.914788,5.066224 
	C0.911829,1.787816 1.373130,0.897792 4.932318,0.898526 
	C520.998535,1.004943 1037.064697,1.005449 1553.130981,0.892028 
	C1556.819702,0.891217 1557.077637,1.984625 1557.075195,5.129540 
	C1556.985596,118.107208 1557.000000,231.084946 1557.000000,344.531342 
	C1555.386475,346.466888 1553.373657,346.538177 1551.364746,346.593140 
	C1549.199097,346.652374 1547.032227,346.623627 1544.865967,346.623596 
	C1329.731079,346.620178 1114.596191,346.632446 899.461304,346.621582 
	C898.663452,346.621552 897.854797,346.498718 896.890076,346.784454 
	C904.059082,352.349701 911.385925,355.593506 920.970154,355.581116 
	C1129.272339,355.311462 1337.574951,355.372467 1545.877563,355.403503 
	C1549.334961,355.404022 1552.896362,354.771942 1556.607178,356.700287 
	C1557.000000,403.354218 1557.000000,449.708466 1557.000000,496.531342 
	C1555.388184,498.468353 1553.375977,498.544952 1551.366943,498.599030 
	C1549.034912,498.661804 1546.701660,498.630402 1544.369019,498.630402 
	C1361.747925,498.631287 1179.126709,498.630981 996.505615,498.632355 
	C994.339600,498.632385 992.167603,498.529785 990.009216,498.689240 
	C987.749329,498.856262 984.940857,498.527344 985.178467,502.125153 
	C985.381897,505.206299 985.753235,508.256256 990.014648,508.298157 
	C992.346313,508.321045 994.678772,508.365936 997.010925,508.365967 
	C1180.131958,508.369171 1363.252930,508.365631 1546.373901,508.393921 
	C1549.667480,508.394440 1553.060669,507.814911 1556.604980,509.698242 
	C1557.000000,556.020874 1557.000000,602.041809 1557.000000,648.531372 
	C1555.388672,650.469360 1553.376343,650.546631 1551.367065,650.601257 
	C1549.034790,650.664612 1546.701416,650.632874 1544.368530,650.632935 
	C1323.738159,650.633911 1103.107666,650.633545 882.477295,650.634766 
	C880.311035,650.634827 878.143494,650.684753 875.978882,650.649231 
	C872.633850,650.594421 870.649597,651.679504 870.650085,655.501709 
	C870.650513,659.325989 872.639648,660.405579 875.982361,660.350830 
	C878.146973,660.315369 880.314514,660.365234 882.480713,660.365234 
	C1103.611084,660.366455 1324.741333,660.363159 1545.871704,660.393860 
	C1549.329468,660.394287 1552.890747,659.766052 1556.604248,661.697449 
	C1557.000000,708.354248 1557.000000,754.708435 1557.000000,801.531372 
	C1555.388306,803.468018 1553.376465,803.544800 1551.367554,803.599060 
	C1549.035767,803.661987 1546.702759,803.630493 1544.370361,803.630493 
	C1361.934692,803.631348 1179.499023,803.631165 997.063354,803.634094 
	C994.731445,803.634155 992.398682,803.684753 990.067749,803.695007 
	C986.555664,803.710449 985.523682,805.852966 985.323486,808.839905 
	C985.079041,812.488037 987.805420,812.159424 990.072998,812.314758 
	C992.232300,812.462585 994.403198,812.367554 996.569031,812.367554 
	C1179.837769,812.368835 1363.106445,812.365417 1546.375122,812.393677 
	C1549.668335,812.394165 1553.061279,811.815186 1556.604980,813.698303 
z"/>
<path fill="#F5F5F5" opacity="1.000000" stroke="none" 
	d="
M1557.000000,661.536804 
	C1447.844360,662.007019 1338.688599,662.017029 1229.532959,662.020203 
	C1111.374878,662.023682 993.216858,662.026672 875.058777,661.966492 
	C873.227966,661.965576 870.159729,663.183899 869.719360,660.987976 
	C869.019958,657.500122 869.636230,653.739685 869.825195,650.101257 
	C869.838440,649.844360 870.900391,649.496948 871.496338,649.446350 
	C872.653870,649.348083 873.826721,649.437866 874.993225,649.437805 
	C1101.143311,649.433533 1327.293457,649.427551 1553.443604,649.438599 
	C1554.411865,649.438660 1555.380249,649.679993 1556.674316,649.404297 
	C1557.000000,653.024536 1557.000000,657.049072 1557.000000,661.536804 
z"/>
<path fill="#F4F4F4" opacity="1.000000" stroke="none" 
	d="
M1557.000000,966.536804 
	C1553.941406,966.141113 1550.811768,966.570984 1547.720581,966.570618 
	C1328.251221,966.544800 1108.781860,966.547485 889.312500,966.547791 
	C887.363403,966.547791 885.414246,966.547791 881.886658,966.547791 
	C890.172668,962.300354 897.124390,958.632141 903.756531,954.413208 
	C904.747986,953.782471 906.343750,953.996399 907.659912,953.996338 
	C1123.629395,953.988098 1339.598755,953.995972 1555.568237,954.005920 
	C1555.733398,954.005981 1555.898682,954.046509 1556.531982,954.034058 
	C1557.000000,958.024536 1557.000000,962.049072 1557.000000,966.536804 
z"/>
<path fill="#F5F5F5" opacity="1.000000" stroke="none" 
	d="
M1.000000,649.463196 
	C2.749774,649.830566 4.612015,649.419556 6.416005,649.419739 
	C214.682953,649.440735 422.949921,649.434998 631.216858,649.507080 
	C632.943848,649.507690 635.900574,648.077576 636.324463,650.776611 
	C636.877625,654.299377 637.089355,658.038574 636.038635,661.602051 
	C635.952271,661.895081 634.865173,661.967834 634.234436,662.008423 
	C633.238953,662.072388 632.236206,662.020813 631.236511,662.020813 
	C421.470062,662.020264 211.703598,662.019958 1.468568,662.009827 
	C1.000000,657.975464 1.000000,653.950928 1.000000,649.463196 
z"/>
<path fill="#F4F4F4" opacity="1.000000" stroke="none" 
	d="
M1.000000,497.463196 
	C2.996543,497.046417 4.993085,497.133423 6.989630,497.133484 
	C210.929657,497.139648 414.869659,497.134094 618.809692,497.208954 
	C620.929626,497.209747 624.067566,495.676758 625.109009,498.311920 
	C626.360291,501.478241 626.546448,505.098480 626.949097,508.550720 
	C627.107605,509.910156 625.718872,509.810699 624.744568,509.826202 
	C623.245361,509.850037 621.745544,509.842377 620.246033,509.842438 
	C414.140076,509.848419 208.034119,509.853851 1.464080,509.929657 
	C1.000000,505.975464 1.000000,501.950897 1.000000,497.463196 
z"/>
<path fill="#FFFFFF" opacity="1.000000" stroke="none" 
	d="
M1557.000000,356.539368 
	C1553.841431,357.054382 1550.682739,357.156158 1547.524170,357.156403 
	C1335.888916,357.173492 1124.253540,357.181091 912.618286,357.211823 
	C910.743286,357.212097 909.029419,357.082275 907.428345,355.907806 
	C902.321472,352.161499 896.900452,348.901489 890.960876,345.721008 
	C892.906677,344.230621 894.901062,344.877869 896.676270,344.877197 
	C1010.659363,344.833282 1124.642456,344.831970 1238.625610,344.829895 
	C1342.276978,344.828003 1445.928345,344.828247 1549.579712,344.839050 
	C1551.740723,344.839264 1553.901611,344.979706 1556.531250,345.027344 
	C1557.000000,348.692902 1557.000000,352.385834 1557.000000,356.539368 
z"/>
<path fill="#F5F5F5" opacity="1.000000" stroke="none" 
	d="
M1.000000,954.463196 
	C194.748337,954.000000 388.496674,954.000000 582.896606,954.000000 
	C581.192810,957.905701 579.715454,961.217163 578.306702,964.557434 
	C577.713257,965.964417 576.774109,966.630798 575.233276,966.556396 
	C573.903442,966.492188 572.567871,966.546204 571.234863,966.546204 
	C383.443726,966.546387 195.652603,966.546204 7.861464,966.548828 
	C5.862476,966.548889 3.863489,966.586121 1.432251,966.802979 
	C1.000000,962.975464 1.000000,958.950928 1.000000,954.463196 
z"/>
<path fill="#FEFEFE" opacity="1.000000" stroke="none" 
	d="
M0.999999,802.460571 
	C2.328556,801.943115 3.657114,801.836487 4.985671,801.836487 
	C209.750397,801.837402 414.515137,801.861267 619.279785,801.749390 
	C623.610779,801.747009 624.643555,802.556396 623.630188,806.848206 
	C621.910095,814.133484 622.152954,814.169556 613.722412,814.169312 
	C466.604828,814.164917 319.487244,814.167480 172.369675,814.165405 
	C115.555351,814.164612 58.741024,814.156128 1.463348,814.075562 
	C1.000000,810.307068 1.000000,806.614197 0.999999,802.460571 
z"/>
<path fill="#F9F9F9" opacity="1.000000" stroke="none" 
	d="
M1557.000000,509.536804 
	C1554.691284,509.942078 1552.382568,509.833496 1550.073853,509.833405 
	C1363.141968,509.825500 1176.210083,509.830475 989.278137,509.759491 
	C987.544617,509.758850 984.599670,511.145508 984.165405,508.463715 
	C983.593994,504.934296 983.196655,501.211365 984.123047,497.609406 
	C984.196106,497.325531 985.256958,497.204956 985.868042,497.169800 
	C987.030273,497.102905 988.199341,497.153778 989.365540,497.153778 
	C1176.963867,497.153198 1364.562256,497.151978 1552.160645,497.161346 
	C1553.483032,497.161438 1554.805420,497.307251 1556.563965,497.192505 
	C1557.000000,501.024536 1557.000000,505.049103 1557.000000,509.536804 
z"/>
<path fill="#FFFFFF" opacity="1.000000" stroke="none" 
	d="
M1.000000,345.460632 
	C2.995604,344.943176 4.991206,344.836578 6.986812,344.836517 
	C194.147491,344.828918 381.308197,344.829468 568.468872,344.829468 
	C580.310974,344.829468 580.310974,344.829468 584.801697,357.148499 
	C390.357147,357.148499 196.142090,357.148499 1.463529,357.074249 
	C1.000000,353.307098 1.000000,349.614166 1.000000,345.460632 
z"/>
<path fill="#FEFEFE" opacity="1.000000" stroke="none" 
	d="
M1557.000000,813.539368 
	C1554.010620,814.055359 1551.021118,814.159058 1548.031738,814.159180 
	C1361.915405,814.166870 1175.799194,814.171997 989.682983,814.091797 
	C987.593689,814.090942 984.156372,815.660278 983.532349,812.906372 
	C982.792847,809.642517 983.720642,805.988037 984.061218,802.516174 
	C984.088684,802.236328 985.150757,801.918762 985.754272,801.864136 
	C986.911255,801.759399 988.084290,801.829712 989.250610,801.829712 
	C1177.366333,801.827454 1365.482056,801.825317 1553.597778,801.832458 
	C1554.418335,801.832520 1555.239014,801.967590 1556.529785,802.019775 
	C1557.000000,805.692932 1557.000000,809.385803 1557.000000,813.539368 
z"/>
<path fill="#FAFAFA" opacity="1.000000" stroke="none" 
	d="
M751.474976,926.163940 
	C774.234802,951.929504 814.816345,958.926025 845.913940,942.896057 
	C867.236023,931.905029 881.765564,914.340088 892.513733,893.638306 
	C909.842285,860.262268 919.539185,824.591248 920.338257,786.928162 
	C920.886292,761.095947 915.472229,736.626709 898.470947,715.999084 
	C885.650024,700.443420 868.827881,691.111938 849.929993,685.034973 
	C835.824951,680.499207 821.337219,677.645020 806.760376,675.240051 
	C789.075745,672.322327 776.020386,680.912781 764.346313,692.732361 
	C763.195435,693.897583 762.495850,695.536621 760.359070,696.350647 
	C753.828064,683.198486 747.252380,670.040283 740.774597,656.834167 
	C739.607666,654.455078 740.039978,651.949097 741.208008,649.605408 
	C746.916321,638.151794 752.712280,626.740601 758.285645,615.221741 
	C759.579895,612.546814 760.537964,612.076965 762.890747,614.102539 
	C766.162903,616.919678 769.789795,619.320190 773.134277,622.058594 
	C783.770874,630.767883 795.690125,634.155762 809.436707,632.092896 
	C828.748047,629.195068 847.741028,625.260193 865.397949,616.623230 
	C899.138245,600.119141 917.493958,572.962463 919.673523,535.509094 
	C922.765015,482.385712 908.836670,433.843079 877.572144,390.798431 
	C854.761841,359.393463 815.534790,347.889282 780.869141,361.056580 
	C770.432129,365.020966 761.638977,371.525269 753.539551,379.055206 
	C752.969421,379.585327 752.255066,380.179260 752.889404,381.450592 
	C755.655029,381.285645 758.567139,380.934082 761.474609,380.969238 
	C774.209412,381.123077 783.603760,391.777252 782.999207,405.254852 
	C782.468262,417.090179 771.408875,426.450562 759.017822,425.552032 
	C745.938660,424.603607 737.483215,414.582306 738.710205,401.587158 
	C740.539917,382.208923 747.090149,365.346893 763.864990,353.849884 
	C776.065247,345.488159 789.995178,343.535370 804.262878,343.181702 
	C851.650330,342.007202 887.422668,363.603607 915.586487,400.133026 
	C944.674927,437.861694 957.553162,480.593628 954.814758,527.988159 
	C953.255737,554.969360 945.470886,579.714783 925.887512,599.479309 
	C909.711182,615.805237 889.449707,624.742310 867.755554,630.922974 
	C850.415649,635.863159 832.587646,638.027527 814.712524,639.679504 
	C810.642334,640.055603 809.743408,641.510193 809.938416,645.197998 
	C810.219604,650.515930 810.464661,655.910095 809.880859,661.178162 
	C809.310791,666.321960 811.492920,667.548218 816.015442,667.955933 
	C830.097351,669.225403 844.120911,671.049988 857.941528,674.122192 
	C882.839294,679.656799 905.949524,688.949402 924.790955,706.820679 
	C940.896545,722.097046 949.556091,741.251953 952.720947,762.924744 
	C957.062622,792.656555 955.941650,822.172668 946.108521,850.762512 
	C931.537415,893.127930 905.985291,927.314392 866.967285,949.999939 
	C839.519043,965.958618 809.474792,968.352844 779.033508,960.508789 
	C758.336914,955.175842 746.337158,940.339783 741.166077,919.926147 
	C739.906738,914.954773 738.568176,909.937805 738.489685,904.723389 
	C738.313904,893.044617 745.576050,884.061157 756.832092,882.086182 
	C767.281677,880.252686 778.439514,886.766663 781.898865,896.720093 
	C785.637695,907.477539 781.008118,919.016479 770.782837,924.239746 
	C765.128235,927.128296 759.231506,926.981812 752.872375,925.280884 
	C752.099915,925.403625 751.737610,925.618408 751.474976,926.163940 
z"/>
<path fill="#FDFDFD" opacity="1.000000" stroke="none" 
	d="
M682.179626,652.000122 
	C682.179626,745.829224 682.180054,839.158325 682.177368,932.487427 
	C682.177307,935.153809 682.229858,937.823914 682.112488,940.485901 
	C681.545288,953.348206 673.593811,962.407349 660.732239,963.132263 
	C647.946655,963.852844 635.078552,963.567505 622.265198,963.150757 
	C615.376343,962.926636 609.565857,959.301636 604.712402,954.502686 
	C600.014648,949.857788 599.451355,944.462402 603.135437,937.006531 
	C609.028198,925.080811 614.511841,912.987854 619.319275,900.585938 
	C633.320923,864.465210 642.261963,826.995178 648.962219,788.942505 
	C657.764648,738.951355 661.515991,688.522766 660.744568,637.812561 
	C659.751404,572.533325 653.169800,507.982544 634.162109,445.125366 
	C626.472412,419.695984 615.756042,395.614960 603.862854,371.965698 
	C598.206909,360.718994 600.031311,354.864471 610.772644,348.293488 
	C615.418213,345.451569 620.426819,343.951538 625.903870,343.971802 
	C636.734863,344.011932 647.566589,343.928284 658.397217,344.006531 
	C672.269714,344.106750 682.054321,353.556335 682.081055,367.537170 
	C682.153137,405.197021 681.846680,442.857452 681.864807,480.517609 
	C681.892212,537.511780 682.067261,594.505920 682.179626,652.000122 
z"/>
<path fill="#F9F9F9" opacity="1.000000" stroke="none" 
	d="
M701.155518,472.999939 
	C701.159668,434.007080 701.176819,395.514221 701.149231,357.021362 
	C701.146240,352.873688 701.657166,348.909882 705.246643,346.305084 
	C708.462952,343.971039 712.154663,342.782043 716.034424,344.598663 
	C720.216370,346.556793 721.997803,350.359711 722.289917,354.674072 
	C722.706055,360.818787 722.832092,366.992920 722.832886,373.154541 
	C722.858643,564.785889 722.852112,756.417236 722.870056,948.048584 
	C722.870361,951.062805 722.844727,954.073181 721.766113,956.907776 
	C719.915833,961.770325 716.023865,963.598267 711.103699,963.513550 
	C706.297852,963.430847 703.424500,960.711548 702.084717,956.284485 
	C701.109070,953.060364 701.156738,949.707947 701.164551,946.370056 
	C701.285339,894.548767 701.169434,842.725708 701.558655,790.906494 
	C702.343262,686.435120 700.575806,581.969055 701.154541,477.499359 
	C701.161926,476.166260 701.155518,474.833099 701.155518,472.999939 
z"/>
<path fill="#F4F4F4" opacity="1.000000" stroke="none" 
	d="
M373.317139,1122.436523 
	C391.813171,1119.998779 409.899994,1119.652466 428.023407,1121.517334 
	C429.148621,1121.633057 430.694519,1121.880615 431.356720,1121.292480 
	C432.367065,1120.394897 431.250916,1119.175537 430.668030,1118.208740 
	C415.050415,1092.305542 395.373352,1070.212524 369.212097,1054.614136 
	C356.046478,1046.764282 341.560028,1043.311768 326.139130,1046.081787 
	C315.592468,1047.976196 308.171234,1055.451782 308.026611,1063.803711 
	C307.840912,1074.527100 317.584717,1086.750000 328.128174,1088.930908 
	C333.911743,1090.127197 339.674591,1090.511475 345.243378,1087.891235 
	C346.562531,1087.270508 348.135559,1086.092896 349.136200,1087.995117 
	C350.308868,1090.224243 348.532867,1091.253784 346.829041,1092.134155 
	C338.092346,1096.648804 329.388458,1095.676514 320.890076,1091.637451 
	C308.744354,1085.864868 300.711609,1070.470703 302.667053,1057.231201 
	C304.494843,1044.856201 316.637482,1035.511597 331.434479,1034.993652 
	C351.842529,1034.279175 369.258087,1042.042847 384.466370,1054.755371 
	C406.097900,1072.837158 424.017426,1094.155762 437.254578,1119.192749 
	C438.580353,1121.700439 440.084686,1123.372070 443.013397,1123.958252 
	C446.626434,1124.681519 449.888672,1126.413330 452.873169,1128.617676 
	C453.579956,1129.139771 454.234894,1129.690186 453.891235,1130.623901 
	C453.523682,1131.622681 452.583466,1131.459229 451.764893,1131.367188 
	C449.027924,1131.060059 446.530823,1129.364258 443.060547,1129.922119 
	C445.774048,1137.708984 449.200653,1145.083008 450.505463,1153.066528 
	C451.442841,1158.801880 452.313141,1164.529785 451.313293,1170.411377 
	C449.430939,1181.483765 442.371552,1188.100708 431.231079,1189.123169 
	C423.511108,1189.831665 416.365631,1188.314697 409.663574,1184.411865 
	C404.897705,1181.636597 400.510406,1178.357666 396.197113,1174.948364 
	C394.875793,1173.903931 393.888519,1171.240234 391.922638,1172.509277 
	C390.378601,1173.506104 392.062439,1175.530151 392.447601,1177.037598 
	C393.725586,1182.039062 394.593353,1187.088013 395.194519,1192.222534 
	C397.597473,1212.747559 382.212494,1228.471924 358.903625,1224.570312 
	C335.169739,1220.597656 318.179810,1206.525391 305.513397,1186.907593 
	C296.566284,1173.050171 289.405121,1158.206299 284.842194,1142.273315 
	C284.026611,1139.425415 282.138702,1138.830444 279.941345,1138.094482 
	C264.365509,1132.877075 252.189896,1123.310303 243.472076,1109.398315 
	C240.170792,1104.130249 237.682129,1098.612671 237.788437,1092.121948 
	C237.990067,1079.813354 247.308136,1072.821777 259.099487,1076.632568 
	C270.245911,1080.234741 276.001495,1089.130371 279.872162,1099.376221 
	C283.230621,1108.265991 284.699585,1117.690186 286.243683,1127.025024 
	C286.890717,1130.936646 288.519806,1132.036865 292.333649,1132.239868 
	C310.968414,1133.231689 329.158234,1130.148926 347.311554,1126.682251 
	C355.799683,1125.061401 364.296814,1123.552734 373.317139,1122.436523 
z"/>
<path fill="#F4F4F4" opacity="1.000000" stroke="none" 
	d="
M811.588623,1289.716553 
	C807.637146,1295.577026 804.429504,1301.328003 803.787720,1308.226440 
	C802.920898,1317.544922 806.475830,1325.352661 814.073608,1329.261230 
	C822.238220,1333.461548 829.983398,1331.692871 836.967773,1326.415894 
	C843.670593,1321.351562 848.171021,1314.661499 850.160278,1306.390259 
	C850.453613,1305.170654 850.459534,1303.197510 851.987427,1303.277832 
	C853.755188,1303.370972 853.728577,1305.337891 853.816223,1306.789307 
	C854.490845,1317.957397 848.633179,1325.350342 839.638794,1330.715698 
	C831.434387,1335.609863 822.506897,1336.952026 813.186890,1334.893921 
	C797.722168,1331.479004 789.458435,1315.440186 794.545959,1298.711670 
	C797.821350,1287.941895 804.717896,1279.767822 813.578735,1273.127197 
	C832.423340,1259.004517 853.968750,1250.935913 876.538818,1245.216553 
	C893.366760,1240.952148 910.427002,1238.326782 927.831238,1238.515869 
	C930.222900,1238.541748 931.880737,1237.806641 933.517395,1236.154053 
	C936.697937,1232.942627 940.359985,1230.313477 944.519348,1228.492310 
	C945.763916,1227.947510 947.255493,1226.191040 948.487976,1227.783813 
	C949.733765,1229.393677 947.711914,1230.263794 946.804932,1231.351562 
	C944.712524,1233.860840 941.741699,1235.624756 940.118042,1239.037354 
	C945.035095,1240.058594 949.700378,1240.938232 954.321289,1242.009033 
	C960.518982,1243.445557 966.379822,1245.817749 971.850769,1249.054565 
	C986.663940,1257.818604 991.061462,1271.526123 983.601135,1287.021362 
	C974.475952,1305.974609 959.337708,1318.917725 940.655518,1327.795898 
	C927.234314,1334.173950 913.078125,1338.474487 898.250000,1340.184448 
	C895.569519,1340.493530 894.249512,1341.778076 893.073364,1344.053955 
	C886.107910,1357.532959 878.432068,1370.594238 868.282959,1381.969727 
	C853.589600,1398.438477 835.211304,1406.693970 813.010315,1405.963867 
	C807.224548,1405.773682 801.780457,1404.273804 797.395264,1400.336426 
	C789.136963,1392.921387 790.889893,1380.168579 801.362854,1373.766846 
	C810.663696,1368.081543 820.990967,1368.151001 831.397278,1369.926758 
	C832.237122,1370.070068 833.143127,1370.244873 832.963867,1371.358276 
	C832.791748,1372.427856 831.834961,1372.450684 831.011108,1372.358765 
	C826.861084,1371.895508 822.702026,1371.633057 818.541809,1372.081665 
	C808.022217,1373.216675 801.292603,1384.030640 805.815796,1392.607300 
	C808.711731,1398.098389 813.664856,1400.122192 819.572998,1399.817139 
	C834.969421,1399.022217 846.840332,1391.260864 857.215759,1380.547363 
	C869.453918,1367.910278 876.243896,1352.170898 882.189392,1336.080078 
	C890.433289,1313.768555 898.089539,1291.241211 909.299866,1270.153687 
	C913.964294,1261.379517 919.830017,1253.373047 926.026062,1244.546997 
	C915.520203,1244.523560 906.038940,1245.606445 896.628174,1247.177490 
	C871.718567,1251.336426 848.449707,1259.719482 827.629639,1274.340820 
	C821.579285,1278.589722 816.196533,1283.477417 811.588623,1289.716553 
z"/>
<path fill="#F2F2F2" opacity="1.000000" stroke="none" 
	d="
M577.158813,1363.125977 
	C575.259888,1363.419922 573.742981,1363.972046 572.303589,1363.814941 
	C561.046631,1362.585571 552.633728,1367.692749 544.210632,1374.585938 
	C533.651184,1383.227295 521.794983,1390.158936 507.975739,1392.579834 
	C497.566772,1394.403320 487.365997,1393.779541 478.032318,1388.289673 
	C469.396393,1383.210327 468.147888,1375.647705 474.331085,1367.802124 
	C481.883301,1358.219604 492.576416,1356.354126 503.793732,1355.962036 
	C516.813965,1355.506958 529.707764,1357.219604 542.597351,1358.677612 
	C546.185486,1359.083618 548.939270,1358.549561 551.597595,1355.952148 
	C559.677917,1348.057739 569.739563,1341.498413 575.623474,1332.251709 
	C581.058228,1323.710815 588.654175,1317.812866 594.697876,1310.251343 
	C596.429321,1308.084961 596.528259,1305.724609 595.381104,1302.323242 
	C599.526978,1303.669922 602.931763,1304.646973 606.240662,1305.881348 
	C610.928772,1307.630249 611.337341,1309.416870 607.888916,1313.064331 
	C598.292542,1323.214111 588.653442,1333.323486 579.002380,1343.421265 
	C574.007263,1348.647705 568.950806,1353.815796 563.575012,1359.368652 
	C575.160583,1360.057129 585.597961,1357.863525 594.609802,1350.863037 
	C600.636719,1346.181396 606.334656,1341.075195 612.157410,1336.132690 
	C613.195923,1335.251221 614.347595,1334.019165 615.528503,1335.364258 
	C616.587280,1336.570435 615.538635,1337.827026 614.554199,1338.803345 
	C603.873352,1349.395508 592.970215,1359.648926 577.158813,1363.125977 
z"/>
<path fill="#F2F2F2" opacity="1.000000" stroke="none" 
	d="
M624.011780,1369.978271 
	C623.099731,1354.105347 631.570618,1343.320679 642.137695,1333.596924 
	C651.582214,1324.906250 662.484070,1319.901978 675.558533,1320.436157 
	C682.529419,1320.721069 688.535645,1323.003662 692.911682,1328.758545 
	C693.972473,1330.153564 694.648621,1331.553223 694.331848,1333.334106 
	C694.125610,1334.494019 693.415344,1335.037964 692.297424,1335.150391 
	C691.237732,1335.257080 690.588562,1335.018066 689.969238,1333.895874 
	C685.655457,1326.079834 681.113647,1324.244507 673.039978,1327.701294 
	C656.970642,1334.581177 644.648315,1346.018799 635.068787,1360.439209 
	C632.700806,1364.003906 630.234802,1368.782959 633.686340,1372.383545 
	C637.251465,1376.102539 641.855652,1373.317505 645.612000,1371.185913 
	C656.064514,1365.254517 663.727539,1356.190430 671.713379,1347.507324 
	C671.938538,1347.262573 672.127441,1346.984619 672.351624,1346.738770 
	C681.161682,1337.077393 681.869263,1335.542236 694.915466,1340.655151 
	C688.348511,1346.939575 682.454651,1353.523560 677.058289,1360.551025 
	C673.471558,1365.221802 670.644836,1370.229370 669.018188,1375.889526 
	C668.523865,1377.609863 667.533508,1379.552246 669.313416,1380.984131 
	C671.110840,1382.430298 673.173950,1381.649902 674.970520,1380.759521 
	C679.647339,1378.441406 683.512817,1374.982300 687.135864,1371.330200 
	C691.695923,1366.733643 695.942688,1361.827637 700.406616,1357.133179 
	C701.341614,1356.150024 702.584351,1354.385498 704.050964,1355.841797 
	C705.116638,1356.899902 703.762085,1358.408936 702.993469,1359.330933 
	C695.849365,1367.900879 688.518738,1376.301880 679.208374,1382.664062 
	C678.117737,1383.409302 676.918884,1384.017456 675.717957,1384.576904 
	C671.287537,1386.640869 666.702271,1387.475586 662.553101,1384.286133 
	C658.606750,1381.252319 658.052734,1376.921387 658.624573,1372.112305 
	C658.893616,1369.849243 661.541382,1366.833008 659.137939,1365.505127 
	C657.317566,1364.499390 656.089966,1368.298828 654.235474,1369.647217 
	C649.919495,1372.785645 645.723999,1376.082764 640.673340,1377.929199 
	C632.480103,1380.924194 627.399109,1378.536011 624.011780,1369.978271 
z"/>
<path fill="#F1F1F1" opacity="1.000000" stroke="none" 
	d="
M524.215881,1306.292114 
	C528.059570,1303.921265 531.630005,1301.785034 535.081421,1299.471191 
	C536.387512,1298.595581 538.219238,1297.597656 537.687195,1295.669922 
	C537.080383,1293.470947 534.782349,1293.481201 533.075439,1293.542969 
	C526.179260,1293.792114 519.677368,1295.919678 513.294128,1298.337280 
	C503.282410,1302.128906 493.914032,1307.300537 485.422913,1313.697998 
	C480.278503,1317.573853 475.799835,1318.267578 470.442291,1315.062866 
	C469.462830,1314.477051 468.298615,1314.200073 466.658844,1313.562378 
	C484.791077,1300.498413 501.428101,1286.143433 520.384827,1274.961548 
	C526.993164,1271.063721 531.691223,1274.832886 536.902344,1279.027710 
	C527.244690,1282.557495 518.862427,1287.744995 510.523132,1294.047607 
	C512.643127,1295.658813 514.032959,1294.637085 515.470947,1294.162598 
	C529.082764,1289.671753 542.967957,1287.670654 557.266785,1289.772217 
	C559.994019,1290.173096 559.976501,1290.292358 562.471985,1292.349976 
	C553.687683,1298.624634 544.875549,1304.815186 536.180908,1311.166748 
	C530.528809,1315.295532 525.180176,1319.824097 520.805664,1325.335693 
	C519.098450,1327.486694 516.588562,1329.945068 518.423462,1332.869263 
	C520.302246,1335.863281 523.596375,1335.199829 526.598389,1334.427368 
	C536.663269,1331.837158 544.772827,1325.640015 553.286499,1320.144409 
	C555.453613,1318.745483 558.286133,1314.590698 560.057007,1317.085693 
	C562.155457,1320.042236 557.380127,1321.536377 555.201477,1323.047241 
	C546.207764,1329.284302 537.497131,1336.102783 526.417358,1338.524902 
	C522.881409,1339.297852 519.468567,1339.248291 516.125366,1337.902710 
	C508.487579,1334.828613 505.816711,1326.973022 510.026886,1319.892578 
	C513.427917,1314.172729 518.420349,1310.055664 524.215881,1306.292114 
z"/>
<path fill="#F4F4F4" opacity="1.000000" stroke="none" 
	d="
M1144.804932,1227.001953 
	C1145.629272,1232.504639 1146.392334,1237.562500 1147.155273,1242.620483 
	C1147.380615,1242.606812 1147.605835,1242.593140 1147.831055,1242.579468 
	C1148.525879,1237.205688 1149.140137,1231.819824 1149.932495,1226.460449 
	C1151.583496,1215.293579 1155.738281,1205.013672 1161.255981,1195.241455 
	C1161.741943,1194.380859 1162.296631,1193.526489 1162.971191,1192.812500 
	C1164.069458,1191.649902 1164.957397,1189.626709 1166.834595,1190.191284 
	C1168.596313,1190.721436 1167.784790,1192.785156 1168.005615,1194.153442 
	C1170.281738,1208.256714 1172.285156,1222.418701 1176.969971,1235.998169 
	C1177.830566,1238.492676 1178.946533,1240.936768 1180.254639,1243.227173 
	C1181.301270,1245.059448 1182.534424,1247.194214 1185.101807,1246.985596 
	C1187.913086,1246.757202 1188.846802,1244.252075 1189.516846,1242.113037 
	C1191.286255,1236.465332 1191.274048,1230.628052 1190.465088,1224.810425 
	C1189.573608,1218.399780 1188.548828,1212.007690 1187.589111,1205.606567 
	C1187.404663,1204.375977 1186.498535,1202.808960 1188.396851,1202.260132 
	C1190.138428,1201.756592 1190.690552,1203.142090 1190.955200,1204.541016 
	C1193.151367,1216.146606 1195.541382,1227.744507 1194.106079,1239.665649 
	C1193.489502,1244.786621 1191.608154,1249.245483 1187.082886,1252.282837 
	C1181.272217,1256.183228 1174.602051,1255.236450 1170.370239,1249.621338 
	C1165.138794,1242.679688 1164.101196,1234.374023 1163.000244,1226.114990 
	C1162.626587,1223.312622 1162.408569,1220.487549 1161.972778,1217.695679 
	C1161.722534,1216.092529 1161.499390,1214.040039 1159.509399,1213.833618 
	C1157.712158,1213.647217 1156.538940,1215.196289 1155.823486,1216.753296 
	C1153.432007,1221.957520 1152.853149,1227.601562 1152.033691,1233.172729 
	C1150.367432,1244.499268 1151.050293,1255.908203 1153.477051,1266.896484 
	C1155.330444,1275.288696 1153.145630,1280.614258 1145.679077,1285.023438 
	C1143.705200,1275.702148 1141.803345,1266.521240 1139.810059,1257.360107 
	C1137.477661,1246.640015 1135.115112,1235.907593 1134.013184,1224.991699 
	C1132.883301,1213.801514 1133.643311,1212.893066 1144.089355,1207.715942 
	C1143.862549,1214.075928 1143.598511,1220.348633 1144.804932,1227.001953 
z"/>
<path fill="#F4F4F4" opacity="1.000000" stroke="none" 
	d="
M1077.985474,1318.137939 
	C1085.681030,1315.095459 1086.562378,1308.160889 1087.808228,1301.734009 
	C1089.778320,1291.571289 1089.820068,1281.221802 1089.813721,1270.895996 
	C1089.806396,1258.748169 1090.353882,1258.008545 1102.354370,1253.864014 
	C1101.785767,1264.673096 1101.274414,1275.391479 1102.976562,1286.054932 
	C1103.636841,1290.190063 1104.991577,1294.089355 1106.925171,1297.763916 
	C1109.035767,1301.775024 1111.447754,1301.797241 1113.648315,1297.786865 
	C1115.677490,1294.089233 1116.354980,1289.925293 1116.707764,1285.802856 
	C1117.345093,1278.354614 1118.259521,1270.909668 1117.521729,1263.386230 
	C1117.385254,1261.994019 1116.621582,1259.386719 1118.783569,1259.152710 
	C1121.624512,1258.845093 1120.865479,1261.746826 1120.906128,1263.251953 
	C1121.175537,1273.239868 1121.287842,1283.237549 1119.096069,1293.083374 
	C1119.060059,1293.245483 1119.058716,1293.415283 1119.022949,1293.577515 
	C1117.061646,1302.446533 1113.235474,1307.067749 1107.517944,1307.475708 
	C1101.168945,1307.928955 1097.205200,1304.458984 1093.722046,1295.419678 
	C1093.550171,1294.973511 1093.268433,1294.569580 1092.608276,1293.357178 
	C1091.703369,1298.460693 1090.946533,1302.853027 1090.140137,1307.236328 
	C1089.505615,1310.686035 1088.441650,1314.012695 1086.820679,1317.122925 
	C1081.761719,1326.829590 1071.748657,1327.635986 1065.229980,1318.850464 
	C1061.372437,1313.651611 1059.144043,1307.716919 1058.472778,1301.343262 
	C1056.537964,1282.972046 1058.546265,1265.710205 1073.248657,1252.309814 
	C1078.419434,1247.596924 1084.393555,1245.238647 1091.457642,1245.843628 
	C1093.156738,1245.988892 1094.795532,1246.317505 1096.177368,1247.276245 
	C1097.450806,1248.159790 1097.366699,1249.626343 1096.950439,1250.900513 
	C1096.444702,1252.448242 1095.160889,1252.053223 1094.038452,1251.688599 
	C1085.843750,1249.026001 1081.713623,1250.603271 1077.616089,1258.302124 
	C1072.015137,1268.825439 1070.141602,1280.270020 1069.929810,1292.013184 
	C1069.810425,1298.631348 1069.219116,1305.335205 1071.852661,1311.738037 
	C1073.034180,1314.610840 1074.461304,1317.095093 1077.985474,1318.137939 
z"/>
<path fill="#F1F1F1" opacity="1.000000" stroke="none" 
	d="
M1257.557861,1153.449341 
	C1259.143433,1159.467896 1260.410522,1165.113892 1260.061279,1171.030029 
	C1259.560791,1179.508057 1254.544922,1186.214233 1246.505127,1188.004639 
	C1244.163086,1188.526123 1243.581909,1189.566040 1243.241699,1191.516479 
	C1242.462646,1195.982422 1241.053833,1200.187622 1238.114014,1203.787720 
	C1232.934814,1210.130249 1226.508545,1211.308716 1219.607910,1207.060303 
	C1210.326416,1201.345825 1206.241089,1192.114258 1203.115112,1182.331299 
	C1200.233521,1173.312744 1199.733643,1164.047485 1201.113770,1154.698120 
	C1201.552246,1151.727905 1202.530884,1148.888916 1203.856689,1146.177979 
	C1209.006836,1135.647583 1218.508179,1133.456055 1227.615967,1140.841431 
	C1237.108398,1148.538574 1240.722534,1159.365601 1243.015259,1170.776733 
	C1243.667114,1174.021240 1243.969360,1177.384399 1243.983032,1180.694824 
	C1243.995728,1183.808350 1245.595581,1183.904907 1247.827271,1183.367310 
	C1252.374634,1182.271851 1255.837036,1177.527588 1256.141113,1172.161499 
	C1256.722656,1161.901855 1253.217896,1152.569214 1249.791260,1143.181885 
	C1248.987671,1140.979980 1245.890137,1137.715820 1249.479614,1136.411987 
	C1252.060669,1135.474365 1252.333984,1139.804443 1253.267334,1141.892212 
	C1254.885620,1145.511597 1256.034058,1149.341064 1257.557861,1153.449341 
z"/>
<path fill="#F1F1F1" opacity="1.000000" stroke="none" 
	d="
M475.331116,1252.074951 
	C473.210968,1258.982178 468.766235,1263.645996 463.468842,1267.535889 
	C455.292053,1273.540039 446.117950,1277.440430 436.082886,1278.802734 
	C431.423309,1279.435425 432.531708,1281.672607 433.842407,1284.122559 
	C436.363403,1288.834595 441.881073,1290.713989 448.141418,1289.630615 
	C457.298981,1288.045898 465.444336,1284.021973 473.474854,1279.641968 
	C474.784729,1278.927612 476.115814,1278.242310 477.479889,1277.640381 
	C478.490326,1277.194336 479.481567,1277.407593 480.131561,1278.342407 
	C480.946808,1279.514526 480.020081,1280.296875 479.216766,1280.753784 
	C468.250977,1286.989624 457.459045,1293.837769 444.127319,1293.396851 
	C436.814758,1293.155029 431.364227,1289.636353 428.692139,1282.754883 
	C427.640228,1280.045776 426.112457,1279.375610 423.581665,1279.364380 
	C419.339325,1279.345459 415.368744,1278.195557 411.723663,1276.003906 
	C405.161346,1272.058350 403.143738,1266.062622 405.946747,1258.918457 
	C407.050934,1256.104126 408.464172,1253.360718 410.585419,1251.293091 
	C425.032440,1237.211304 442.170410,1230.658203 462.351105,1234.104126 
	C472.314087,1235.805298 477.076263,1242.747437 475.331116,1252.074951 
z"/>
<path fill="#EEEEEE" opacity="1.000000" stroke="none" 
	d="
M1265.772095,1125.929688 
	C1260.130859,1115.655029 1254.668335,1105.753174 1249.283081,1095.809448 
	C1246.082520,1089.899902 1243.332031,1083.861328 1244.875366,1076.818604 
	C1245.676147,1073.164795 1247.770264,1070.554810 1251.000000,1068.789307 
	C1252.059326,1068.210205 1253.226562,1067.688354 1254.090820,1068.969238 
	C1254.788574,1070.003296 1253.996704,1070.718750 1253.302002,1071.517334 
	C1247.476807,1078.213623 1247.781006,1081.859619 1254.493042,1087.614258 
	C1258.006104,1090.626221 1262.053223,1092.335449 1266.627808,1092.909912 
	C1269.599487,1093.283203 1272.589600,1093.606323 1275.518799,1094.208008 
	C1289.206543,1097.019653 1295.074707,1103.244141 1297.350098,1117.175537 
	C1297.508911,1118.147339 1297.726807,1119.109497 1297.934204,1120.162720 
	C1302.124390,1116.878052 1303.182251,1111.792603 1301.406006,1104.471436 
	C1299.299316,1095.787598 1294.620605,1088.244629 1290.782104,1080.327759 
	C1290.204224,1079.136108 1289.486572,1077.988525 1289.094482,1076.738770 
	C1288.815552,1075.849609 1288.697632,1074.639282 1289.927734,1074.220703 
	C1291.035034,1073.843872 1291.656006,1074.514771 1292.249634,1075.497681 
	C1298.193726,1085.340942 1304.191528,1095.149536 1305.283813,1106.997803 
	C1305.314331,1107.328857 1305.401611,1107.654419 1305.434570,1107.985474 
	C1306.287842,1116.555176 1294.444824,1138.126099 1286.959595,1142.241699 
	C1278.685913,1146.790894 1264.925171,1139.796875 1266.509399,1129.643555 
	C1266.705566,1128.385620 1266.404175,1127.364868 1265.772095,1125.929688 
z"/>
<path fill="#F1F1F1" opacity="1.000000" stroke="none" 
	d="
M1040.116699,1312.409302 
	C1039.369507,1322.489746 1038.304443,1332.040039 1033.666016,1340.788086 
	C1032.065552,1343.806519 1029.908203,1346.305542 1027.034668,1348.076538 
	C1019.683105,1352.607056 1011.216431,1349.419556 1008.009399,1341.042114 
	C1006.234680,1336.406128 1006.486145,1331.547119 1006.431335,1326.741455 
	C1006.336487,1318.420532 1006.347778,1310.097412 1006.427979,1301.776245 
	C1006.466125,1297.821289 1006.475464,1293.982178 1001.264160,1291.661255 
	C1005.508545,1289.781616 1008.715454,1288.172729 1012.057800,1286.927002 
	C1016.686523,1285.201660 1018.146118,1286.321045 1018.017212,1291.271729 
	C1017.662231,1304.906494 1017.252258,1318.539795 1016.890930,1332.174438 
	C1016.846924,1333.835083 1016.726196,1335.551025 1017.062805,1337.152588 
	C1017.699646,1340.182007 1017.903931,1343.862183 1021.774414,1344.604614 
	C1025.284546,1345.277954 1027.721558,1342.999878 1029.621094,1340.312622 
	C1033.096436,1335.396240 1033.871826,1329.546509 1034.872803,1323.858521 
	C1035.877441,1318.149292 1036.332397,1312.344604 1037.088989,1306.589844 
	C1037.270142,1305.212891 1036.906494,1302.950439 1038.791992,1303.014160 
	C1041.130371,1303.093506 1040.437256,1305.437500 1040.438110,1306.985596 
	C1040.438965,1308.645874 1040.247559,1310.306274 1040.116699,1312.409302 
z"/>
<path fill="#F2F2F2" opacity="1.000000" stroke="none" 
	d="
M1015.299866,1277.316284 
	C1011.713440,1279.748291 1008.310486,1280.644165 1005.147522,1277.463623 
	C1002.440186,1274.741211 1002.705261,1271.460327 1004.219849,1268.259033 
	C1006.413940,1263.621460 1011.331116,1261.687866 1015.264038,1263.781616 
	C1018.690796,1265.605957 1019.572754,1270.207520 1017.286499,1274.697876 
	C1016.849792,1275.555542 1016.143982,1276.276001 1015.299866,1277.316284 
z"/>
<path fill="#F4F4F4" opacity="1.000000" stroke="none" 
	d="
M622.033203,1296.212891 
	C619.540710,1299.200073 616.582642,1300.334839 613.040649,1300.164429 
	C610.136414,1300.024780 607.991699,1298.830200 606.685791,1296.175903 
	C605.437134,1293.637573 606.057678,1291.298462 607.463989,1289.107178 
	C609.516235,1285.909424 615.482727,1284.408569 619.137878,1286.302124 
	C623.233154,1288.423828 624.241028,1291.709229 622.033203,1296.212891 
z"/>
<path fill="#080808" opacity="1.000000" stroke="none" 
	d="
M699.002441,541.000000 
	C699.002441,563.626343 699.002441,585.752625 699.002441,607.878967 
	C698.763733,607.878357 698.525024,607.877747 698.286316,607.877136 
	C698.286316,544.692749 698.286316,481.508362 698.286316,418.323975 
	C698.525024,418.322388 698.763733,418.320801 699.002441,418.319214 
	C699.002441,459.046143 699.002441,499.773071 699.002441,541.000000 
z"/>
<path fill="#131313" opacity="1.000000" stroke="none" 
	d="
M919.482788,440.026855 
	C935.815002,461.183350 941.842285,485.113464 939.454895,511.293304 
	C938.147095,525.634216 934.309082,539.337769 927.951416,552.677917 
	C927.481506,553.321716 927.132324,553.470520 926.468262,553.195190 
	C931.419189,533.603699 934.371155,513.986816 933.182251,493.823334 
	C932.099976,475.468475 927.815613,458.066650 918.979980,441.497498 
	C918.661316,440.707428 918.731201,440.332916 919.482788,440.026855 
z"/>
<path fill="#131313" opacity="1.000000" stroke="none" 
	d="
M922.589478,726.841553 
	C939.746460,750.192627 944.855774,776.036682 940.520447,803.976562 
	C938.835388,814.836182 935.776184,825.331848 931.209534,835.349731 
	C930.721619,836.420166 930.564453,838.562866 928.842285,837.932983 
	C926.597046,837.111633 928.817078,835.775818 929.075073,834.763733 
	C938.363770,798.319458 939.180359,762.494263 921.376831,727.614807 
	C921.540833,727.069336 921.822327,726.880798 922.589478,726.841553 
z"/>
<path fill="#1F1F1F" opacity="1.000000" stroke="none" 
	d="
M758.091431,636.033447 
	C755.121277,641.480408 752.583862,646.746704 749.477600,651.652771 
	C747.580688,654.648926 747.864258,657.070740 749.356018,659.949097 
	C751.954895,664.963867 754.342712,670.088257 756.802490,675.174622 
	C757.219055,676.036133 758.070984,677.125549 757.003418,677.838928 
	C755.765564,678.666077 755.390320,677.343628 754.976990,676.488831 
	C751.867371,670.058289 748.805725,663.603943 745.624695,657.208984 
	C745.018005,655.989197 745.123352,655.084412 745.739075,653.972839 
	C749.843933,646.563171 753.912720,639.133301 757.965698,631.695129 
	C758.366028,630.960449 758.956299,630.936218 759.862427,630.937256 
	C760.653564,632.943054 758.769897,634.125122 758.091431,636.033447 
z"/>
<path fill="#1F1F1F" opacity="1.000000" stroke="none" 
	d="
M746.477356,415.838867 
	C741.941772,410.119995 742.025269,403.121429 746.814087,397.013885 
	C746.492737,402.208466 747.491699,406.309113 750.323669,410.261749 
	C752.107300,412.751251 751.682007,416.308441 746.477356,415.838867 
z"/>
<path fill="#131313" opacity="1.000000" stroke="none" 
	d="
M749.560974,892.098999 
	C752.144470,898.874023 747.271179,902.500183 744.278992,908.352417 
	C742.536255,896.144043 743.597412,893.089661 749.560974,892.098999 
z"/>
<path fill="#1F1F1F" opacity="1.000000" stroke="none" 
	d="
M922.999023,726.650269 
	C922.772278,727.033630 922.469360,727.076233 921.712952,727.188477 
	C919.840027,725.061829 918.420593,722.865540 916.959229,720.366882 
	C920.370422,720.750549 920.745972,724.396179 922.999023,726.650269 
z"/>
<path fill="#1F1F1F" opacity="1.000000" stroke="none" 
	d="
M926.088440,553.277283 
	C926.576416,552.978943 926.913574,552.969177 927.503357,552.971558 
	C927.044556,554.585693 926.333008,556.187622 925.569885,557.905701 
	C924.368103,556.219543 925.609863,554.938843 926.088440,553.277283 
z"/>
<path fill="#1F1F1F" opacity="1.000000" stroke="none" 
	d="
M919.733826,439.733856 
	C919.525085,440.183563 919.295044,440.407104 919.032898,440.923950 
	C917.930542,439.678284 916.930237,438.211243 915.930298,436.402588 
	C915.955078,435.876831 915.979492,435.692688 916.278259,435.557373 
	C917.582581,436.882721 918.612549,438.159241 919.733826,439.733856 
z"/>
<path fill="#B2B2B2" opacity="1.000000" stroke="none" 
	d="
M914.125122,715.573242 
	C915.001587,716.058777 915.526733,716.540771 916.009155,717.297546 
	C916.103149,717.821411 916.239746,718.070557 916.147583,718.679260 
	C914.848511,718.679932 914.302856,717.820435 913.776123,716.570312 
	C913.725769,716.035706 913.749817,715.802673 914.125122,715.573242 
z"/>
<path fill="#000000" opacity="1.000000" stroke="none" 
	d="
M751.802856,926.166992 
	C751.125061,926.051208 750.261658,925.519836 750.336365,925.232605 
	C750.529724,924.489624 751.298706,924.609619 752.208252,925.033875 
	C752.334290,925.432739 752.189514,925.647705 751.802856,926.166992 
z"/>
<path fill="#1F1F1F" opacity="1.000000" stroke="none" 
	d="
M916.039917,719.271545 
	C915.991516,718.797058 916.064392,718.555237 916.051880,717.942871 
	C916.375671,718.174133 916.784912,718.776001 917.055725,719.721191 
	C916.917297,720.064514 916.973450,720.021606 917.000549,719.999512 
	C916.738831,719.819763 916.450012,719.661987 916.039917,719.271545 
z"/>
<path fill="#B2B2B2" opacity="1.000000" stroke="none" 
	d="
M912.936279,714.309814 
	C913.396973,714.371216 913.805664,714.727112 914.345398,715.329834 
	C914.348511,715.692688 914.220581,715.808655 913.897217,716.096680 
	C913.429199,715.713928 913.156677,715.159119 912.936279,714.309814 
z"/>
<path fill="#1F1F1F" opacity="1.000000" stroke="none" 
	d="
M914.866577,434.287964 
	C915.413818,434.373535 915.862488,434.711060 916.431885,435.327423 
	C916.552551,435.606232 916.238403,435.829193 916.084473,435.945068 
	C915.543091,435.553955 915.155579,435.046936 914.866577,434.287964 
z"/>
<path fill="#1F1F1F" opacity="1.000000" stroke="none" 
	d="
M915.037292,433.951843 
	C914.723145,433.829437 914.386414,433.736237 914.049622,433.643036 
	C914.229614,433.136841 914.532166,433.038452 914.964294,433.702148 
	C914.965088,434.036011 915.014648,433.981110 915.037292,433.951843 
z"/>
<path fill="#B2B2B2" opacity="1.000000" stroke="none" 
	d="
M913.012573,713.988647 
	C912.858765,713.833008 912.695435,713.685669 912.532166,713.538391 
	C912.643555,713.584839 912.755005,713.631287 912.927368,713.846558 
	C912.988342,714.015320 913.003174,713.996948 913.012573,713.988647 
z"/>
<path fill="#1F1F1F" opacity="1.000000" stroke="none" 
	d="
M622.449951,927.359070 
	C643.895142,885.600464 655.071411,841.350769 659.751892,795.286926 
	C659.012146,848.443237 644.297607,897.534912 616.173157,944.238098 
	C616.226807,940.059021 617.719727,937.769226 618.677185,935.369141 
	C619.722595,932.748657 621.061157,930.245117 622.449951,927.359070 
z"/>
<path fill="#1F1F1F" opacity="1.000000" stroke="none" 
	d="
M618.998779,375.240112 
	C639.785034,419.122314 652.655640,465.401855 655.883728,514.419861 
	C654.550537,513.696106 654.310547,512.571777 654.091675,511.443329 
	C653.838318,510.137238 653.535217,508.836090 653.370361,507.518188 
	C647.709473,462.267090 636.046814,418.606018 618.411865,376.136078 
	C618.383484,375.743256 618.623840,375.668182 618.998779,375.240112 
z"/>
<path fill="#B2B2B2" opacity="1.000000" stroke="none" 
	d="
M618.432312,375.629852 
	C617.264038,374.096985 617.264038,374.096985 617.186584,371.880737 
	C618.537415,372.117157 618.807983,373.247772 619.174561,374.573212 
	C618.996033,375.071869 618.858765,375.256622 618.432312,375.629852 
z"/>
<path fill="#B2B2B2" opacity="1.000000" stroke="none" 
	d="
M615.939209,370.103699 
	C616.494019,369.135834 616.917969,369.272552 616.936279,370.074646 
	C616.952820,370.801697 616.591248,371.112274 615.939209,370.103699 
z"/>
<path fill="#030303" opacity="1.000000" stroke="none" 
	d="
M411.745270,1132.733154 
	C419.485474,1132.064819 426.772675,1131.440308 434.063110,1130.856445 
	C435.739288,1130.722290 437.193726,1130.732056 438.099152,1132.791870 
	C441.660553,1140.893799 444.991669,1149.047485 444.947998,1158.087891 
	C444.900116,1167.996460 438.908722,1174.960327 429.128784,1176.009033 
	C412.658020,1177.775513 399.019135,1172.678833 389.275787,1158.720215 
	C385.857300,1153.822876 382.801331,1148.661255 378.762634,1144.208862 
	C377.353607,1142.655518 375.748810,1141.182617 373.633545,1142.349731 
	C371.515259,1143.518555 372.520416,1145.760986 373.062073,1147.306641 
	C376.195282,1156.247192 379.580872,1165.099121 382.792633,1174.012817 
	C384.261353,1178.089111 385.269653,1182.293945 385.457245,1186.653320 
	C386.055389,1200.555542 376.016876,1211.363892 361.702606,1212.040161 
	C341.475037,1212.995850 325.419708,1204.643066 313.434967,1188.860718 
	C303.012939,1175.136475 295.690063,1159.629761 290.371643,1143.218506 
	C290.179840,1142.626709 290.206024,1141.964233 290.066437,1140.799072 
	C300.987274,1142.918457 311.733459,1142.686401 322.517456,1142.195679 
	C346.479340,1141.105713 370.148987,1137.368042 393.930176,1134.635254 
	C399.712219,1133.970825 405.505402,1133.403687 411.745270,1132.733154 
z"/>
<path fill="#080808" opacity="1.000000" stroke="none" 
	d="
M276.569153,1110.490601 
	C278.247864,1117.111084 279.790497,1123.348511 281.575287,1130.565063 
	C266.336212,1125.430054 254.315765,1117.855713 247.803543,1103.619873 
	C244.735306,1096.912720 247.308945,1089.505005 252.904724,1086.669922 
	C258.426941,1083.872070 264.898590,1086.077026 269.259918,1092.152466 
	C273.138367,1097.555054 274.671600,1103.871582 276.569153,1110.490601 
z"/>
<path fill="#000000" opacity="1.000000" stroke="none" 
	d="
M391.250000,1171.250000 
	C391.777222,1171.272949 392.149200,1171.564697 391.585510,1171.873535 
	C391.487854,1171.927124 391.200012,1171.633301 391.250000,1171.250000 
z"/>
<path fill="#040404" opacity="1.000000" stroke="none" 
	d="
M969.881592,1258.226318 
	C977.243591,1270.085449 974.669678,1281.300171 968.284119,1291.939209 
	C957.111267,1310.554810 940.238281,1322.269043 920.315918,1329.954834 
	C913.035461,1332.763550 905.563782,1334.953735 897.173279,1335.979126 
	C910.546326,1306.596436 920.315735,1276.222656 934.554993,1247.720459 
	C935.262695,1246.303833 935.687805,1244.575439 938.005859,1244.803223 
	C949.902039,1245.973022 961.455566,1247.904053 969.881592,1258.226318 
z"/>
<path fill="#080808" opacity="1.000000" stroke="none" 
	d="
M492.782410,1387.052246 
	C488.332245,1387.261108 484.396301,1387.181519 480.628632,1385.501099 
	C474.454559,1382.747192 473.091583,1378.090210 477.194946,1372.785522 
	C482.123413,1366.413940 488.846436,1363.065430 496.712555,1362.006958 
	C511.485413,1360.019287 526.038330,1363.110107 540.864197,1364.039307 
	C526.682373,1375.473633 511.235870,1383.888062 492.782410,1387.052246 
z"/>
<path fill="#000000" opacity="1.000000" stroke="none" 
	d="
M509.951233,1294.416992 
	C510.933197,1294.752075 511.306030,1295.263794 510.571991,1295.776123 
	C510.063324,1296.131226 509.405609,1296.432495 509.047668,1295.643066 
	C508.932892,1295.389771 509.294220,1294.920654 509.951233,1294.416992 
z"/>
<path fill="#080808" opacity="1.000000" stroke="none" 
	d="
M1220.533447,1191.396729 
	C1214.120361,1179.735596 1209.337402,1167.957031 1209.878906,1154.679321 
	C1210.085693,1149.608276 1210.440674,1144.055176 1216.059814,1142.127563 
	C1221.681763,1140.198853 1224.798340,1145.031006 1227.830322,1148.605225 
	C1233.529419,1155.323364 1235.982178,1163.577515 1238.453003,1172.336060 
	C1233.710693,1171.319580 1229.955444,1171.832153 1228.459961,1176.690674 
	C1227.375488,1180.214233 1230.246094,1184.121948 1234.894897,1186.810547 
	C1236.652832,1187.827271 1240.561279,1186.483276 1239.932617,1190.724609 
	C1239.330444,1194.786987 1238.286621,1198.746704 1234.427124,1200.801514 
	C1231.113892,1202.565796 1228.289185,1200.627197 1226.036255,1198.263306 
	C1224.102783,1196.234497 1222.487549,1193.902466 1220.533447,1191.396729 
z"/>
<path fill="#080808" opacity="1.000000" stroke="none" 
	d="
M446.937805,1243.681885 
	C452.620758,1242.044067 457.982880,1240.978516 463.522369,1241.915771 
	C470.784729,1243.144531 472.984436,1248.064819 468.917969,1254.196167 
	C462.730499,1263.525391 453.104645,1267.960449 442.891113,1272.485474 
	C443.516632,1267.594238 442.575806,1263.909302 437.552185,1263.031616 
	C433.745087,1262.366577 429.851410,1265.997192 428.107391,1271.097900 
	C427.504944,1272.860107 428.862946,1275.998901 425.390137,1276.076172 
	C421.348694,1276.166138 417.286377,1275.756348 414.523590,1272.325928 
	C412.448792,1269.749634 413.387360,1267.029297 414.954132,1264.476685 
	C417.443817,1260.420898 420.953461,1257.395630 424.845825,1254.797241 
	C431.635040,1250.265015 438.696655,1246.248413 446.937805,1243.681885 
z"/>
<path fill="#080808" opacity="1.000000" stroke="none" 
	d="
M1254.121216,1094.697266 
	C1262.867920,1099.167480 1271.460083,1103.535645 1279.819824,1108.310913 
	C1285.262695,1111.420044 1289.609497,1115.821167 1291.718384,1121.938232 
	C1293.338745,1126.638306 1292.180542,1128.286743 1287.180908,1128.776611 
	C1284.074707,1129.081055 1281.306274,1128.001709 1278.591553,1126.624268 
	C1276.000366,1125.309570 1273.726562,1123.130615 1270.284424,1124.294922 
	C1268.235352,1124.988281 1268.070923,1122.656250 1267.444946,1121.502808 
	C1262.845947,1113.027344 1258.359253,1104.490723 1253.781494,1095.623779 
	C1253.773193,1095.105347 1253.820557,1094.936646 1254.121216,1094.697266 
z"/>
<path fill="#1F1F1F" opacity="1.000000" stroke="none" 
	d="
M1287.431519,1132.044922 
	C1289.039062,1132.384644 1290.472046,1130.305664 1291.359497,1132.003052 
	C1292.058472,1133.340088 1290.571655,1134.410889 1289.722656,1135.321533 
	C1285.754150,1139.577637 1280.168091,1137.529175 1277.046143,1130.348511 
	C1280.558105,1130.828491 1283.632568,1132.716919 1287.431519,1132.044922 
z"/>
<path fill="#080808" opacity="1.000000" stroke="none" 
	d="
M1253.887695,1095.112061 
	C1253.572998,1094.918457 1253.420288,1094.562866 1253.267578,1094.207153 
	C1253.516479,1094.197754 1253.765259,1094.188354 1254.194214,1094.402832 
	C1254.374390,1094.626587 1254.049927,1094.950195 1253.887695,1095.112061 
z"/>
</svg>